<svg width="90" height="23" viewBox="0 0 90 23" fill="none" xmlns="http://www.w3.org/2000/svg">
<path d="M7.94731 11.8751C9.12998 10.2131 10.5026 10.5438 12.1206 10.7305C11.6913 10.2718 11.48 9.69312 11.48 9.07178C11.48 7.64046 12.6673 6.47979 14.1326 6.47979C17.1926 6.47979 16.8147 9.94377 15.4873 9.94377C15.1893 9.94377 14.95 9.73446 14.8853 9.48647C14.832 9.28179 14.8832 9.04113 14.8127 8.84713C14.7133 8.57647 14.4386 8.3778 14.1313 8.3778C13.9333 8.3778 13.7553 8.45583 13.6246 8.58178C13.2126 8.9791 13.47 9.77446 13.7387 10.1811C14.1127 10.7451 14.7693 11.1091 15.5227 11.1018L15.6453 11.098C17.7433 10.862 18.3607 9.07603 17.828 7.45535C17.5967 6.75136 16.7893 5.71534 15.88 5.28136C17.5547 4.31202 18.0687 2.07667 18.0093 0.75L0 11.8753L18.0093 23.002C18.0687 21.6747 17.5547 19.4394 15.88 18.4707C16.7893 18.036 17.5967 17 17.828 16.296C18.3607 14.6753 17.7433 12.8893 15.6453 12.6527L15.5227 12.6489C14.7693 12.6414 14.1127 13.0056 13.7387 13.5696C13.47 13.9763 13.2127 14.7716 13.6246 15.1689C13.7553 15.295 13.9333 15.3729 14.1313 15.3729C14.4386 15.3729 14.7133 15.1749 14.8127 14.9036C14.8833 14.7096 14.832 14.4696 14.8853 14.2643C14.95 14.0162 15.1893 13.8069 15.4873 13.8069C16.8147 13.8069 17.1926 17.2709 14.1326 17.2709C12.6673 17.2709 11.48 16.1103 11.48 14.6789C11.48 14.0576 11.6913 13.4789 12.1206 13.0202C10.5026 13.2075 9.12998 13.5384 7.94731 11.8751Z" fill="#9B804D"/>
<path d="M30.0164 17.4894V11.808C30.0164 11.7373 30.0145 11.668 30.0126 11.6V11.5963L30.0088 11.5237V11.5199V11.5142L30.0075 11.501V11.4953C29.8801 9.50333 28.5181 8.81934 26.8208 8.81934C25.4888 8.81934 24.4288 9.24932 23.8915 9.77532V10.8346C24.6161 10.444 25.6542 10.072 26.4668 10.072C27.4768 10.072 28.1835 10.376 28.1855 11.4953L28.1861 11.5048V11.6015L28.1899 12.1509C25.5553 12.4075 23.3506 12.8855 23.3506 15.1669C23.3506 16.8375 24.5226 17.9942 26.8846 17.9942C27.6946 17.9942 29.3504 17.8461 30.0164 17.4894ZM28.1899 16.6575C27.6686 16.8715 26.7413 16.8922 26.2453 16.7443C25.9579 16.6583 25.7219 16.5263 25.5486 16.3303C25.3206 16.0723 25.1979 15.7096 25.1979 15.2309C25.1979 13.657 26.4786 13.3076 28.1899 13.3076V16.6575Z" fill="#253168"/>
<path d="M64.3239 17.8195V16.4308C64.1665 16.4774 64.0412 16.5094 63.8679 16.5094C63.2072 16.5094 62.9399 16.0687 62.9399 15.4081V10.0701H64.3239V8.85404H62.9399V6.70605L61.0206 7.90472L61.0212 8.85404H60.0039V10.0701H61.0212V15.6954C61.0212 16.8747 61.6819 17.9927 63.3486 17.9927C63.8052 17.9927 64.1506 17.8981 64.3239 17.8195Z" fill="#253168"/>
<path d="M58.9379 15.2951C58.9379 14.2598 58.5373 13.3711 56.7859 12.6804C56.0019 12.3684 55.4513 12.0064 55.4513 11.2831C55.4513 10.6578 55.9019 10.1151 56.7359 10.1151C57.3699 10.1151 58.0939 10.5278 58.4226 10.8764V9.79444C57.2926 8.08711 53.4833 8.59642 53.4833 11.3817C53.4833 12.3024 53.8333 13.2231 55.5353 13.8644C56.4526 14.2098 56.9719 14.5544 56.9719 15.3104C56.9719 16.9324 54.3759 16.7364 53.4746 16.0651L53.4841 17.4824C54.0147 17.7518 54.6854 17.9924 55.7361 17.9924C57.7041 17.9924 58.9379 16.7424 58.9379 15.2951Z" fill="#253168"/>
<path d="M81.0468 17.7521L81.0455 11.4907C81.0455 10.0807 80.1875 8.81738 77.5788 8.81738C76.1041 8.81738 74.9862 9.06005 74.1602 9.4494L74.1608 17.7521H76.1375L76.1368 10.3074C76.5095 10.1621 76.8495 10.0647 77.4975 10.0647C78.7455 10.0647 79.0695 10.8101 79.0695 11.5227L79.0702 17.7521H81.0468Z" fill="#253168"/>
<path d="M40.4591 8.83026C38.2478 8.75429 37.0825 9.01431 36.1758 9.45158V17.7523H38.1505V10.3423C38.6031 10.0829 39.6985 9.93426 40.4585 10.2429L40.4591 8.83026Z" fill="#253168"/>
<path d="M34.0573 8.85938H32.1367V17.752H34.0573V8.85938Z" fill="#253168"/>
<path d="M51.894 17.4894V11.808C51.894 11.7374 51.8921 11.668 51.8902 11.6V11.5963L51.8864 11.5237V11.5199V11.5142L51.8851 11.501V11.4953C51.7577 9.50333 50.3958 8.81934 48.6984 8.81934C47.3664 8.81934 46.3064 9.24935 45.7684 9.77535V10.8346C46.4938 10.444 47.5318 10.072 48.3444 10.072C49.3544 10.072 50.0611 10.376 50.0631 11.4953V11.5048V11.6016L50.0669 12.1509C47.4322 12.4075 45.2275 12.8856 45.2275 15.1669C45.2275 16.8376 46.3996 17.9942 48.7609 17.9942C49.5715 17.9942 51.228 17.8461 51.894 17.4894ZM50.0669 16.6575C49.5449 16.8715 48.6182 16.8922 48.1222 16.7443C47.8349 16.6583 47.5982 16.5263 47.4255 16.3303C47.1969 16.0723 47.0749 15.7096 47.0749 15.2309C47.0749 13.657 48.3549 13.3076 50.0669 13.3076V16.6575Z" fill="#253168"/>
<path d="M72.0395 17.4894V11.808C72.0395 11.7374 72.0381 11.668 72.0357 11.6L72.035 11.5963L72.0313 11.5237V11.5199V11.5142L72.0306 11.501L72.0299 11.4953C71.9033 9.50333 70.5406 8.81934 68.8433 8.81934C67.5119 8.81934 66.4519 9.24935 65.9139 9.77535V10.8346C66.6393 10.444 67.6766 10.072 68.4899 10.072C69.5 10.072 70.2066 10.376 70.2086 11.4953V11.5048V11.6016L70.2124 12.1509C67.5777 12.4075 65.373 12.8856 65.373 15.1669C65.373 16.8376 66.5457 17.9942 68.9071 17.9942C69.7177 17.9942 71.3742 17.8461 72.0395 17.4894ZM70.2124 16.6575C69.691 16.8715 68.7644 16.8922 68.2677 16.7443C67.9811 16.6583 67.7444 16.5263 67.571 16.3303C67.343 16.0723 67.2204 15.7096 67.2204 15.2309C67.2204 13.657 68.5011 13.3076 70.2124 13.3076V16.6575Z" fill="#253168"/>
<path d="M89.2915 17.4894V11.808C89.2915 11.7374 89.2896 11.668 89.2877 11.6L89.287 11.5963L89.2832 11.5237V11.5199V11.5142L89.2819 11.501V11.4953C89.1545 9.50333 87.7926 8.81934 86.0952 8.81934C84.7632 8.81934 83.7032 9.24935 83.1659 9.77535V10.8346C83.8913 10.444 84.9286 10.072 85.7413 10.072C86.7512 10.072 87.4579 10.376 87.4606 11.4953V11.5048V11.6016L87.4643 12.1509C84.8297 12.4075 82.625 12.8856 82.625 15.1669C82.625 16.8376 83.797 17.9942 86.159 17.9942C86.969 17.9942 88.6255 17.8461 89.2915 17.4894ZM87.4643 16.6575C86.943 16.8715 86.0163 16.8922 85.5197 16.7443C85.233 16.6583 84.9963 16.5263 84.823 16.3303C84.595 16.0723 84.4723 15.7096 84.4723 15.2309C84.4723 13.657 85.7523 13.3076 87.4643 13.3076V16.6575Z" fill="#253168"/>
<path d="M34.1206 6.71947C34.1206 6.18414 33.6779 5.75879 33.0966 5.75879C32.5319 5.75879 32.0732 6.18414 32.0732 6.71947C32.0732 7.2388 32.5319 7.66346 33.0966 7.66346C33.6779 7.66346 34.1206 7.2388 34.1206 6.71947Z" fill="#253168"/>
</svg>
