<svg width="16" height="14" viewBox="0 0 16 14" fill="none" xmlns="http://www.w3.org/2000/svg">
<path d="M15.6651 6.95985C15.6583 6.17637 14.5936 5.60717 13.3146 5.60717H10.6159C10.2409 5.60717 10.1003 5.5469 9.87935 5.29244L5.37932 0.383955C5.2387 0.22324 5.06459 0.142883 4.8637 0.142883H4.08691C3.91281 0.142883 3.81236 0.296901 3.89942 0.484401L6.21638 5.60717L2.81459 5.99557L1.60254 3.77235C1.51548 3.60493 1.36816 3.53128 1.14718 3.53128H0.859235C0.685129 3.53128 0.571289 3.64512 0.571289 3.81922V10.1005C0.571289 10.2746 0.685129 10.3817 0.859235 10.3817H1.14718C1.36816 10.3817 1.51548 10.3081 1.60254 10.1473L2.81459 7.92414L6.21638 8.31254L3.89942 13.4353C3.81236 13.6161 3.91281 13.7768 4.08691 13.7768H4.8637C5.06459 13.7768 5.2387 13.6897 5.37932 13.5357L9.87935 8.62054C10.1003 8.37277 10.2409 8.31254 10.6159 8.31254H13.3146C14.5936 8.31254 15.6583 7.73666 15.6651 6.95985Z" fill="black"/>
</svg>
