<svg width="22" height="20" viewBox="0 0 22 20" fill="none" xmlns="http://www.w3.org/2000/svg">
<path d="M3.45606 19.6562H19.0253C20.7329 19.6562 21.7674 18.471 21.7674 16.9341C21.7674 16.4621 21.6268 15.9698 21.3757 15.5279L13.581 1.94753C13.0587 1.03346 12.1648 0.571411 11.2406 0.571411C10.3165 0.571411 9.4125 1.03346 8.90025 1.94753L1.10561 15.5279C0.834403 15.9799 0.713867 16.4621 0.713867 16.9341C0.713867 18.471 1.74846 19.6562 3.45606 19.6562Z" fill="#E81142"/>
<path d="M11.251 12.9464C10.7286 12.9464 10.4374 12.6451 10.4273 12.1127L10.2967 6.64843C10.2867 6.11607 10.6784 5.73438 11.2409 5.73438C11.7833 5.73438 12.2051 6.12612 12.1951 6.65848L12.0445 12.1127C12.0344 12.6552 11.7431 12.9464 11.251 12.9464ZM11.251 16.3114C10.6482 16.3114 10.126 15.8293 10.126 15.2366C10.126 14.6339 10.6382 14.1518 11.251 14.1518C11.8536 14.1518 12.3659 14.6239 12.3659 15.2366C12.3659 15.8393 11.8436 16.3114 11.251 16.3114Z" fill="white"/>
</svg>
