<svg width="22" height="22" viewBox="0 0 22 22" fill="none" xmlns="http://www.w3.org/2000/svg">
<path d="M10.9594 21.2053C16.5643 21.2053 21.2049 16.5547 21.2049 10.9598C21.2049 5.35492 16.5543 0.714294 10.9494 0.714294C5.35449 0.714294 0.713867 5.35492 0.713867 10.9598C0.713867 16.5547 5.36454 21.2053 10.9594 21.2053Z" fill="white"/>
<path d="M9.83466 15.8717C9.49317 15.8717 9.21191 15.731 8.95076 15.3795L6.42955 12.2857C6.27888 12.0848 6.18848 11.8639 6.18848 11.6329C6.18848 11.1808 6.54004 10.8091 6.99205 10.8091C7.28334 10.8091 7.50433 10.8996 7.75544 11.231L9.79454 13.8627L14.0836 6.97212C14.2744 6.67078 14.5356 6.51007 14.7967 6.51007C15.2387 6.51007 15.6505 6.81141 15.6505 7.28351C15.6505 7.50449 15.5199 7.73552 15.3994 7.94645L10.6784 15.3795C10.4675 15.711 10.1762 15.8717 9.83466 15.8717Z" fill="#253168"/>
</svg>
