<svg width="32" height="32" viewBox="0 0 32 32" fill="none" xmlns="http://www.w3.org/2000/svg">
<path d="M15.9497 29.6071C23.423 29.6071 29.6104 23.4063 29.6104 15.9464C29.6104 8.47322 23.4096 2.28572 15.9364 2.28572C8.47656 2.28572 2.28906 8.47322 2.28906 15.9464C2.28906 23.4063 8.48995 29.6071 15.9497 29.6071Z" fill="white"/>
<path d="M18.6026 22.5759C18.2545 22.9107 17.5581 22.8839 17.183 22.5358L11.6116 17.2723C10.8482 16.5759 10.8482 15.3438 11.6116 14.6473L17.183 9.38393C17.5982 8.99553 18.2143 8.98215 18.5893 9.34375C19.0045 9.73214 19.0178 10.4018 18.6161 10.7768L13.1116 15.9464L18.6161 21.1429C19.0045 21.5178 19.0178 22.1607 18.6026 22.5759Z" fill="#253168"/>
</svg>
