<svg width="35" height="32" viewBox="0 0 35 32" fill="none" xmlns="http://www.w3.org/2000/svg">
<g clip-path="url(#clip0_125_17424)">
<path d="M0.857422 26.0267C0.857422 26.7232 1.29939 27.1651 1.99581 27.1651H2.79939C3.48243 27.1651 3.93778 26.7232 3.93778 26.0267V24.0447C4.0851 24.0848 4.52707 24.1116 4.8485 24.1116H30.8038C31.1253 24.1116 31.5672 24.0848 31.7146 24.0447V26.0267C31.7146 26.7232 32.1699 27.1651 32.853 27.1651H33.6565C34.353 27.1651 34.7949 26.7232 34.7949 26.0267V18.0447C34.7949 15.4866 33.3752 14.0803 30.8172 14.0803H4.8351C2.27707 14.0803 0.857422 15.4866 0.857422 18.0447V26.0267Z" fill="black"/>
<path d="M4.07129 12.1653H7.47307V10.2367C7.47307 8.99118 8.16951 8.30814 9.44183 8.30814H14.4373C15.6963 8.30814 16.3928 8.99118 16.3928 10.2367V12.1653H19.4329V10.2367C19.4329 8.99118 20.1293 8.30814 21.4687 8.30814H26.1561C27.4954 8.30814 28.1919 8.99118 28.1919 10.2367V12.1653H31.6069V8.32153C31.6069 5.84385 30.2677 4.57153 27.857 4.57153H7.80789C5.39719 4.57153 4.07129 5.84385 4.07129 8.32153V12.1653Z" fill="black"/>
</g>
<defs>
<clipPath id="clip0_125_17424">
<rect width="33.9375" height="22.6206" fill="white" transform="translate(0.857422 4.57153)"/>
</clipPath>
</defs>
</svg>
