<svg width="18" height="12" viewBox="0 0 18 12" fill="none" xmlns="http://www.w3.org/2000/svg">
<g clip-path="url(#clip0_2028_1995)">
<path d="M0.928711 11.0132C0.928711 11.3615 1.14969 11.5824 1.49791 11.5824H1.89969C2.24121 11.5824 2.46889 11.3615 2.46889 11.0132V10.0222C2.54255 10.0423 2.76353 10.0557 2.92425 10.0557H15.9019C16.0627 10.0557 16.2836 10.0423 16.3573 10.0222V11.0132C16.3573 11.3615 16.5849 11.5824 16.9265 11.5824H17.3283C17.6765 11.5824 17.8975 11.3615 17.8975 11.0132V7.0222C17.8975 5.74316 17.1876 5.04004 15.9086 5.04004H2.91755C1.63853 5.04004 0.928711 5.74316 0.928711 7.0222V11.0132Z" fill="black"/>
<path d="M2.53613 4.08252H4.23702V3.11823C4.23702 2.49547 4.58524 2.15395 5.2214 2.15395H7.71916C8.34865 2.15395 8.69688 2.49547 8.69688 3.11823V4.08252H10.2169V3.11823C10.2169 2.49547 10.5652 2.15395 11.2348 2.15395H13.5785C14.2482 2.15395 14.5964 2.49547 14.5964 3.11823V4.08252H16.304V2.16064C16.304 0.921805 15.6344 0.285645 14.429 0.285645H4.40444C3.19908 0.285645 2.53613 0.921805 2.53613 2.16064V4.08252Z" fill="black"/>
</g>
<defs>
<clipPath id="clip0_2028_1995">
<rect width="16.9687" height="11.3103" fill="white" transform="translate(0.928711 0.285645)"/>
</clipPath>
</defs>
</svg>
