<svg width="16" height="17" viewBox="0 0 16 17" fill="none" xmlns="http://www.w3.org/2000/svg">
<path d="M6.6522 14.6048C6.94015 14.6048 7.16783 14.4776 7.32854 14.2298L13.6566 4.26555C13.7772 4.07136 13.8241 3.92404 13.8241 3.77002C13.8241 3.40171 13.583 3.16064 13.2147 3.16064C12.9468 3.16064 12.7995 3.2477 12.6388 3.50216L6.62542 13.0847L3.50488 8.99993C3.33747 8.76553 3.17006 8.67182 2.92899 8.67182C2.54729 8.67182 2.28613 8.93296 2.28613 9.30124C2.28613 9.4553 2.3531 9.62942 2.48033 9.7901L5.95578 14.2164C6.15667 14.4776 6.36426 14.6048 6.6522 14.6048Z" fill="black"/>
</svg>
