<svg width="31" height="31" viewBox="0 0 31 31" fill="none" xmlns="http://www.w3.org/2000/svg">
<path d="M7.23913 26.9673H10.1454C10.4132 26.9673 10.6141 27.0476 10.815 27.2486L12.8775 29.2977C14.565 30.9985 16.132 30.9851 17.8195 29.2977L19.882 27.2486C20.0963 27.0476 20.2837 26.9673 20.565 26.9673H23.4579C25.8551 26.9673 26.9668 25.8691 26.9668 23.4584V20.5655C26.9668 20.2842 27.0471 20.0968 27.2481 19.8825L29.2972 17.82C30.998 16.1324 30.9846 14.5655 29.2972 12.878L27.2481 10.8155C27.0471 10.6146 26.9668 10.4137 26.9668 10.1459V7.23961C26.9668 4.85568 25.8686 3.73068 23.4579 3.73068H20.565C20.2837 3.73068 20.0963 3.66372 19.882 3.46283L17.8195 1.41372C16.132 -0.287174 14.565 -0.273781 12.8775 1.41372L10.815 3.46283C10.6141 3.66372 10.4132 3.73068 10.1454 3.73068H7.23913C4.8418 3.73068 3.73019 4.8289 3.73019 7.23961V10.1459C3.73019 10.4137 3.66323 10.6146 3.46234 10.8155L1.41323 12.878C-0.287662 14.5655 -0.274269 16.1324 1.41323 17.82L3.46234 19.8825C3.66323 20.0968 3.73019 20.2842 3.73019 20.5655V23.4584C3.73019 25.8556 4.8418 26.9673 7.23913 26.9673Z" fill="black"/>
<path d="M13.8557 21.8911C13.4004 21.8911 13.0254 21.717 12.6772 21.2483L9.31557 17.1232C9.11468 16.8554 8.99414 16.5474 8.99414 16.2527C8.99414 15.6366 9.46289 15.1411 10.079 15.1411C10.454 15.1411 10.7486 15.275 11.0834 15.717L13.8022 19.226L19.521 10.0384C19.7754 9.62325 20.1236 9.42236 20.4852 9.42236C21.0611 9.42236 21.6102 9.82416 21.6102 10.4402C21.6102 10.7483 21.4362 11.0563 21.2754 11.3242L14.9807 21.2483C14.6995 21.6768 14.3111 21.8911 13.8557 21.8911Z" fill="white"/>
</svg>
