<svg width="17" height="20" viewBox="0 0 17 20" fill="none" xmlns="http://www.w3.org/2000/svg">
<path d="M8.10544 19.5982C11.0519 19.5982 13.4291 17.221 13.4291 14.2829C13.4291 11.3365 11.0519 8.95929 8.10544 8.95929C5.16736 8.95929 2.79013 11.3365 2.79013 14.2829C2.79013 17.221 5.16736 19.5982 8.10544 19.5982ZM6.59035 17.0201C6.27227 17.2544 5.93745 17.0117 6.06301 16.6434L6.66569 14.8437L5.12551 13.7472C4.83254 13.5296 4.92461 13.1194 5.3264 13.1194L7.21814 13.1362L7.79572 11.3282C7.91286 10.9599 8.31465 10.9599 8.43186 11.3282L9.00944 13.1362L10.9012 13.1194C11.3029 13.1194 11.3866 13.5379 11.1021 13.7389L9.56186 14.8437L10.1646 16.6434C10.2901 17.0117 9.95529 17.2544 9.63722 17.0201L8.11379 15.9068L6.59035 17.0201ZM3.00776 10.2986C3.82808 9.26058 4.9581 8.47379 6.25553 8.08872L2.46368 1.27512L0.262227 4.63171C0.111558 4.84934 0.103187 5.09209 0.237116 5.30972L3.00776 10.2986ZM6.23042 5.23438H9.98879L12.5418 0.714294H3.67741L6.23042 5.23438ZM9.96365 8.08872C11.2695 8.47379 12.3911 9.26058 13.2114 10.2986L15.9904 5.30972C16.116 5.09209 16.1076 4.84934 15.957 4.63171L13.7555 1.27512L9.96365 8.08872Z" fill="#253168"/>
</svg>
