<svg width="34" height="33" viewBox="0 0 34 33" fill="none" xmlns="http://www.w3.org/2000/svg">
<g clip-path="url(#clip0_2028_4301)">
<path d="M20.8923 30.3883H31.9951C33.3611 30.3883 34.2049 29.4375 34.2049 27.9508V10.8616C34.2049 9.37496 33.3611 8.42407 31.9951 8.42407H20.8923C19.5398 8.42407 18.6826 9.37496 18.6826 10.8616V27.9508C18.6826 29.4375 19.5398 30.3883 20.8923 30.3883ZM22.2316 15.6831C21.9504 15.6831 21.763 15.4821 21.763 15.2009V13.058C21.763 12.7768 21.9504 12.5892 22.2316 12.5892H24.4548C24.7495 12.5892 24.9236 12.7768 24.9236 13.058V15.2009C24.9236 15.4821 24.7495 15.6831 24.4548 15.6831H22.2316ZM22.2316 20.9464C21.9504 20.9464 21.763 20.7589 21.763 20.4777V18.3348C21.763 18.0536 21.9504 17.866 22.2316 17.866H24.4548C24.7495 17.866 24.9236 18.0536 24.9236 18.3348V20.4777C24.9236 20.7589 24.7495 20.9464 24.4548 20.9464H22.2316ZM22.2316 26.2232C21.9504 26.2232 21.763 26.0356 21.763 25.7545V23.6116C21.763 23.3304 21.9504 23.1295 22.2316 23.1295H24.4548C24.7495 23.1295 24.9236 23.3304 24.9236 23.6116V25.7545C24.9236 26.0356 24.7495 26.2232 24.4548 26.2232H22.2316ZM28.4326 15.6831C28.1379 15.6831 27.9639 15.4821 27.9639 15.2009V13.058C27.9639 12.7768 28.1379 12.5892 28.4326 12.5892H30.6558C30.937 12.5892 31.1246 12.7768 31.1246 13.058V15.2009C31.1246 15.4821 30.937 15.6831 30.6558 15.6831H28.4326ZM28.4326 20.9464C28.1379 20.9464 27.9639 20.7589 27.9639 20.4777V18.3348C27.9639 18.0536 28.1379 17.866 28.4326 17.866H30.6558C30.937 17.866 31.1246 18.0536 31.1246 18.3348V20.4777C31.1246 20.7589 30.937 20.9464 30.6558 20.9464H28.4326ZM28.4326 26.2232C28.1379 26.2232 27.9639 26.0356 27.9639 25.7545V23.6116C27.9639 23.3304 28.1379 23.1295 28.4326 23.1295H30.6558C30.937 23.1295 31.1246 23.3304 31.1246 23.6116V25.7545C31.1246 26.0356 30.937 26.2232 30.6558 26.2232H28.4326Z" fill="black"/>
<path d="M4.90206 32.2098H20.8797C23.3038 32.2098 24.9244 30.3883 24.9244 27.9509V4.27232C24.9244 1.83482 23.3038 0 20.8797 0H4.90206C2.47796 0 0.857422 1.83482 0.857422 4.27232V27.9509C0.857422 30.3883 2.47796 32.2098 4.90206 32.2098Z" fill="white"/>
<path d="M2.67871 27.9507C2.67871 29.4374 3.53585 30.3882 4.90192 30.3882H20.8796C22.2323 30.3882 23.0894 29.4374 23.0894 27.9507V4.27221C23.0894 2.78561 22.2323 1.83472 20.8796 1.83472H4.90192C3.53585 1.83472 2.67871 2.78561 2.67871 4.27221V27.9507ZM8.25014 28.232V23.8793C8.25014 23.2633 8.65192 22.8615 9.28138 22.8615H16.6207C17.2502 22.8615 17.6385 23.2633 17.6385 23.8793V28.232H8.25014ZM7.80817 9.02668V6.42847C7.80817 6.09364 8.02246 5.85257 8.37068 5.85257H11.0359C11.3841 5.85257 11.6118 6.09364 11.6118 6.42847V9.02668C11.6118 9.37489 11.3841 9.60257 11.0359 9.60257H8.37068C8.02246 9.60257 7.80817 9.37489 7.80817 9.02668ZM14.2769 9.02668V6.42847C14.2769 6.09364 14.4912 5.85257 14.8395 5.85257H17.5046C17.8528 5.85257 18.0805 6.09364 18.0805 6.42847V9.02668C18.0805 9.37489 17.8528 9.60257 17.5046 9.60257H14.8395C14.4912 9.60257 14.2769 9.37489 14.2769 9.02668ZM7.80817 14.491V11.8927C7.80817 11.558 8.02246 11.3169 8.37068 11.3169H11.0359C11.3841 11.3169 11.6118 11.558 11.6118 11.8927V14.491C11.6118 14.8392 11.3841 15.0669 11.0359 15.0669H8.37068C8.02246 15.0669 7.80817 14.8392 7.80817 14.491ZM14.2769 14.491V11.8927C14.2769 11.558 14.4912 11.3169 14.8395 11.3169H17.5046C17.8528 11.3169 18.0805 11.558 18.0805 11.8927V14.491C18.0805 14.8392 17.8528 15.0669 17.5046 15.0669H14.8395C14.4912 15.0669 14.2769 14.8392 14.2769 14.491ZM7.80817 19.9552V17.357C7.80817 17.0088 8.02246 16.7812 8.37068 16.7812H11.0359C11.3841 16.7812 11.6118 17.0088 11.6118 17.357V19.9552C11.6118 20.2901 11.3841 20.5311 11.0359 20.5311H8.37068C8.02246 20.5311 7.80817 20.2901 7.80817 19.9552ZM14.2769 19.9552V17.357C14.2769 17.0088 14.4912 16.7812 14.8395 16.7812H17.5046C17.8528 16.7812 18.0805 17.0088 18.0805 17.357V19.9552C18.0805 20.2901 17.8528 20.5311 17.5046 20.5311H14.8395C14.4912 20.5311 14.2769 20.2901 14.2769 19.9552Z" fill="black"/>
</g>
<defs>
<clipPath id="clip0_2028_4301">
<rect width="33.3482" height="32.2098" fill="white" transform="translate(0.857422)"/>
</clipPath>
</defs>
</svg>
