<svg width="24" height="24" viewBox="0 0 24 24" fill="none" xmlns="http://www.w3.org/2000/svg">
<path d="M11.9594 22.2053C17.5643 22.2053 22.2049 17.5547 22.2049 11.9597C22.2049 6.35486 17.5543 1.71423 11.9494 1.71423C6.35449 1.71423 1.71387 6.35486 1.71387 11.9597C1.71387 17.5547 6.36454 22.2053 11.9594 22.2053Z" fill="white"/>
<path d="M10.8347 16.8716C10.4932 16.8716 10.2119 16.731 9.95076 16.3794L7.42955 13.2857C7.27888 13.0848 7.18848 12.8638 7.18848 12.6328C7.18848 12.1807 7.54004 11.8091 7.99205 11.8091C8.28334 11.8091 8.50433 11.8995 8.75544 12.231L10.7945 14.8626L15.0836 7.97206C15.2744 7.67072 15.5356 7.51001 15.7967 7.51001C16.2387 7.51001 16.6505 7.81135 16.6505 8.28344C16.6505 8.50443 16.5199 8.73546 16.3994 8.94639L11.6784 16.3794C11.4675 16.7109 11.1762 16.8716 10.8347 16.8716Z" fill="#253168"/>
</svg>
