<svg width="160" height="99" viewBox="0 0 160 99" fill="none" xmlns="http://www.w3.org/2000/svg">
<g clip-path="url(#clip0_2032_9444)">
<path fill-rule="evenodd" clip-rule="evenodd" d="M21.2558 55.8824C26.9506 53.4011 35.7698 39.531 37.5144 35.7653C36.5039 35.7653 31.7277 35.8572 31.7277 40.2668C30.9928 40.2668 30.2578 39.44 30.2578 38.3376C30.2578 36.5921 32.0952 34.7548 38.1575 34.7548C40.6379 30.6208 44.68 25.1097 47.3441 23.1805C48.4465 22.4455 48.5384 22.6293 47.8035 23.3642C46.9767 24.5585 45.6905 26.3958 44.4044 28.6006C42.1996 32.1834 39.9029 37.0515 37.056 41.8294C34.3918 46.2372 31.3602 49.8209 28.2376 52.4851C25.2979 54.8727 22.3591 56.3426 20.6136 56.71C19.8778 56.8938 19.9696 56.3417 21.2558 55.8824ZM63.3281 14.9134C59.8371 14.9134 56.4389 16.1995 53.5911 18.4953C50.0083 17.0263 42.9345 12.6167 35.3105 12.6167C26.1247 12.6167 20.3371 18.4034 20.3371 24.6503C20.3371 29.703 24.6548 33.1931 29.5229 33.1931C36.7795 33.1931 37.79 27.9567 37.79 27.4055C37.79 27.038 37.6981 26.3031 37.3298 26.1193C37.1461 26.0275 36.9623 26.0275 36.9623 26.2112C36.9623 28.1404 33.1958 32.1816 28.6033 32.1816C18.0396 32.1816 22.3573 13.5345 34.0226 13.5345C40.4533 13.5345 47.2505 17.7595 52.1194 19.9643C48.996 23.2715 45.6897 27.8639 40.9126 37.418C34.2982 50.4631 25.6636 58.5456 16.0185 58.5456C10.7821 58.5456 5.36284 55.1465 5.36284 46.7876C5.36284 32.641 24.1019 28.7826 24.1019 43.2975C24.1019 49.1752 19.9679 52.2996 16.5697 52.3914C12.7113 52.3914 11.8845 50.002 11.8845 47.7053C11.8845 42.93 14.273 42.0105 13.0788 42.0105C8.85377 42.0105 7.93511 53.1264 17.1209 53.1264C23.0004 53.1264 26.5823 47.9818 26.6741 42.8373C26.766 38.0611 23.6425 33.3768 16.2941 33.3768C7.20017 33.3768 2.42311 39.9903 2.51497 46.5129C2.51497 52.9426 7.10831 59.3733 16.7534 59.3733C24.4693 59.3733 29.4301 56.0661 33.7479 52.0257C38.5249 47.6161 41.4638 41.8294 43.9442 36.1337C44.8629 36.3174 46.6083 36.5011 47.2514 36.3174C46.9758 37.0523 46.7921 38.9815 47.4351 38.9815C47.7107 38.9815 47.527 38.4303 47.9863 37.4198C48.6294 36.1337 49.8237 35.4906 52.1203 33.9289C53.1309 33.194 52.6715 32.1834 51.661 32.1834C49.6399 32.1834 48.7213 35.3987 46.3327 35.3987C45.6897 35.3069 44.8629 35.215 44.4035 35.1231C45.8734 31.3566 49.7318 23.6398 53.2218 20.5172C54.6917 21.1603 59.7435 23.6407 63.3263 23.6407C71.9626 23.6398 73.1569 14.9134 63.3281 14.9134ZM63.2362 15.6483C70.4928 15.6483 70.7693 22.079 63.8793 22.079C60.3883 22.079 56.8064 20.0579 54.6935 19.1392C56.9893 17.1182 60.1127 15.6483 63.2362 15.6483ZM157.761 33.2849V33.8361L149.586 34.1126C149.586 34.1126 146.83 38.1547 144.349 41.9204C143.982 42.3797 142.328 44.952 141.409 46.5129C139.94 49.177 136.266 55.0564 139.94 56.4344C140.4 56.6173 141.318 57.0766 141.042 57.4441C140.583 57.8116 139.848 58.0881 139.113 58.0881C132.132 58.0881 136.908 48.9941 139.664 45.4104C138.836 46.33 135.714 50.3704 132.499 50.3704C130.846 50.3704 129.927 49.3607 129.927 48.0737C129.927 44.4008 137.001 38.6123 134.152 38.6123C133.693 38.6123 133.05 38.9807 132.132 39.531C129.651 41.1846 128.182 42.9309 127.079 44.4008C124.966 47.2478 122.945 50.1875 122.945 50.1875L119.822 50.2794C119.822 50.2794 125.517 41.7358 125.609 41.5529C124.139 42.8382 121.292 43.7577 119.822 42.0123C119.546 45.3195 114.953 50.6469 111.279 50.6469C108.155 50.6469 107.421 47.5243 108.247 45.043C105.859 48.0746 103.47 50.2794 101.083 50.2794C99.8875 50.2794 98.6941 49.3616 98.6941 47.7071C98.6941 45.043 103.379 41.0009 103.379 39.2563C103.379 38.9807 103.287 38.6132 102.828 38.6132C102.001 38.6132 100.991 39.1653 99.7965 40.0831C97.4079 42.1032 96.4893 43.6667 94.6519 46.5129C93.8251 47.7071 93.917 47.7071 92.1715 50.1875H89.049C89.049 50.1875 94.7438 41.6439 95.295 40.818C95.7543 40.1749 96.8567 38.5213 95.5706 38.5213C93.5495 38.5213 90.1505 41.5529 87.3954 45.3186C86.293 46.9713 84.0882 50.1875 84.0882 50.1875H80.9647L86.7514 41.5529C86.3839 41.7358 85.0059 42.2879 83.9035 42.2879C82.9849 42.2879 82.1581 41.8285 82.1581 40.5415C82.1581 39.1644 83.2605 38.5213 83.8117 38.3376C81.0557 38.4295 77.1973 42.1032 73.4316 47.7062C72.4211 49.1761 71.778 50.1875 71.778 50.1875H68.6546C68.6546 50.1875 70.0326 48.1656 71.6862 45.6861C71.4097 45.8689 67.5522 50.2785 65.1636 50.2785C63.0507 50.2785 62.4995 48.0737 62.867 46.2364C62.867 46.2364 60.0191 50.2785 57.2631 50.2785C55.242 50.2785 54.4152 48.2583 54.599 46.512C54.599 46.512 54.599 46.6038 54.5071 46.6038C54.1396 47.2478 51.843 50.3704 48.9951 50.2785C42.6572 50.2785 47.3415 37.8774 54.7827 37.8774C56.7119 37.8774 57.7224 38.6123 57.7224 40.2659C58.1818 39.531 59.2842 37.9692 59.2842 37.9692H62.4076C62.4076 37.9692 59.1923 42.7463 57.6306 45.2267C56.4363 46.9713 55.7014 49.4517 57.2631 49.4517C59.9272 49.4517 62.4986 45.4096 64.6115 42.1951C66.1733 39.8976 67.4594 37.9684 67.4594 37.9684H70.5829C70.5829 37.9684 67.644 42.378 65.5311 45.5933C63.8775 47.89 64.0612 49.4508 65.1636 49.4508C67.3684 49.4508 72.4202 44.399 74.9925 40.4488C76.003 38.9789 76.6461 37.9684 76.6461 37.9684H79.7695L77.5647 41.1837V41.2756C79.8614 38.9798 82.3418 37.6936 83.6279 37.6936C86.4758 37.6936 86.1993 40.6334 84.8222 41.552C85.4653 41.3674 87.027 41.0927 87.8538 39.8066L89.1399 37.9692H92.3553L90.2423 41C92.7227 38.5204 94.7438 37.8774 96.0299 37.8774C99.2453 37.8774 97.7754 41 97.7754 41C98.2347 40.4496 100.531 37.8774 103.196 37.8774C104.848 37.8774 105.492 38.6123 105.492 39.8984C105.584 41.6439 104.022 43.6659 102.002 46.9713C101.45 47.8908 100.44 49.3607 101.634 49.3607C104.574 49.3607 109.81 41.7349 109.902 41.552C111.738 39.0716 114.036 37.5099 116.883 37.5099C118.536 37.5099 119.454 38.796 119.822 40.174C121.384 44.4918 125.884 41 127.354 38.8879C127.538 38.6123 127.814 38.2448 127.998 37.9692H131.12L129.007 41.1846C129.375 40.8171 132.131 37.8774 134.886 37.8774C136.632 37.8774 137 39.1644 137 40.174C137 42.3788 134.336 45.3186 133.325 47.4315C132.223 49.4517 133.141 50.002 135.346 48.5339C138.101 46.6966 140.674 43.3894 143.705 39.0716C144.808 37.5099 146.094 35.6726 147.104 34.2036C144.073 34.2036 118.812 34.7548 118.812 34.7548L117.434 33.3768L147.655 33.2849C147.655 33.2849 150.411 28.6916 152.708 28.6916C152.892 28.6916 152.892 28.6916 152.892 28.6916C153.259 28.6916 153.076 28.8753 152.892 29.1509C151.881 30.7127 150.136 33.2849 150.136 33.2849H157.761ZM49.1815 49.3616C52.6724 49.3616 59.3778 38.7969 55.4284 38.7969C52.3049 38.7969 45.4149 49.3616 49.1815 49.3616ZM71.4114 32.3663C70.4009 32.3663 69.666 33.1012 69.666 34.1117C69.666 35.0304 70.4009 35.7653 71.4114 35.7653C72.3301 35.7653 73.065 35.0304 73.065 34.1117C73.065 33.1012 72.3301 32.3663 71.4114 32.3663ZM112.106 42.8382C110.177 45.6869 109.258 48.8095 110.268 49.4526C111.28 50.1875 113.851 48.2583 115.78 45.3186C117.71 42.4698 118.628 39.3472 117.526 38.7042C116.515 37.9701 114.036 39.8993 112.106 42.8382Z" fill="black"/>
<path d="M41.6494 55.8823H125.426" stroke="black" stroke-width="0.57399" stroke-miterlimit="2.6131" stroke-linecap="round"/>
<path fill-rule="evenodd" clip-rule="evenodd" d="M41.0984 63.9674C41.1902 63.9674 41.1902 63.9674 41.1902 63.8746V63.7828C41.1902 62.6804 41.1902 62.4975 41.1902 62.221C41.0984 61.9445 41.0984 61.8536 40.8228 61.8536C40.7309 61.8536 40.639 61.7617 40.5472 61.7617C40.4553 61.7617 40.3634 61.7617 40.3634 61.7617C40.3634 61.6689 40.4553 61.6689 40.5472 61.6689C41.0065 61.6689 41.4658 61.6689 41.6496 61.6689C41.8333 61.6689 42.3845 61.6689 42.6601 61.6689C42.752 61.6689 42.8438 61.6689 42.8438 61.7617C42.8438 61.7617 42.752 61.7617 42.6601 61.7617C42.5682 61.7617 42.5682 61.8536 42.4764 61.8536C42.1999 61.8536 42.1999 61.9454 42.1999 62.221C42.108 62.4975 42.108 62.6804 42.108 63.7828V65.068C42.108 65.712 42.108 66.264 42.1999 66.5379C42.1999 66.8144 42.2917 66.9053 42.4764 66.9981C42.5682 66.9981 42.752 66.9981 42.8438 66.9981C42.9357 66.9981 43.0276 66.9981 43.0276 67.09C43.0276 67.09 42.9357 67.09 42.8438 67.09C42.3845 67.09 41.8333 67.09 41.6496 67.09C41.4658 67.09 41.0065 67.09 40.639 67.09C40.5472 67.09 40.5472 67.09 40.5472 67.09C40.5472 66.9981 40.5472 66.9981 40.639 66.9981C40.7309 66.9981 40.8228 66.9981 40.9146 66.9981C41.0984 66.9053 41.0984 66.8135 41.0984 66.5379C41.1902 66.2632 41.1902 65.7111 41.1902 65.068V64.4258C41.1902 64.3331 41.1902 64.3331 41.0984 64.3331H38.1586C38.1586 64.3331 38.0668 64.3331 38.0668 64.4258V65.068C38.0668 65.712 38.0668 66.264 38.1586 66.5379C38.1586 66.8144 38.2505 66.9053 38.4342 66.9981C38.5261 66.9981 38.7098 66.9981 38.8017 66.9981C38.8936 66.9981 38.9854 66.9981 38.9854 67.09C38.9854 67.09 38.8936 67.09 38.8017 67.09C38.3424 67.09 37.7912 67.09 37.6074 67.09C37.4237 67.09 36.9644 67.09 36.5969 67.09C36.505 67.09 36.505 67.09 36.505 67.09C36.505 66.9981 36.505 66.9981 36.5969 66.9981C36.6888 66.9981 36.7806 66.9981 36.8725 66.9981C37.0562 66.9053 37.0562 66.8135 37.0562 66.5379C37.1481 66.2632 37.1481 65.7111 37.1481 65.068V63.7828C37.1481 62.6804 37.1481 62.4975 37.1481 62.221C37.1481 61.9445 37.0562 61.8536 36.7806 61.8536C36.6888 61.8536 36.5969 61.7617 36.505 61.7617C36.4132 61.7617 36.3213 61.7617 36.3213 61.7617C36.3213 61.6689 36.4132 61.6689 36.505 61.6689C36.9644 61.6689 37.4237 61.6689 37.6074 61.6689C37.7912 61.6689 38.3424 61.6689 38.618 61.6689C38.7098 61.6689 38.8017 61.6689 38.8017 61.7617C38.8017 61.7617 38.7098 61.7617 38.618 61.7617C38.618 61.7617 38.5261 61.8536 38.4342 61.8536C38.1586 61.8536 38.1586 61.9454 38.1586 62.221C38.0668 62.4975 38.0668 62.6804 38.0668 63.7828V63.8746C38.0668 63.9674 38.1586 63.9674 38.1586 63.9674H41.0984Z" fill="black"/>
<path fill-rule="evenodd" clip-rule="evenodd" d="M44.4043 64.4259C44.4043 63.1389 45.323 61.5771 47.6196 61.5771C49.6407 61.5771 50.835 62.5886 50.835 64.2413C50.835 65.8958 49.5488 67.181 47.6196 67.181C45.323 67.181 44.4043 65.7112 44.4043 64.4259ZM49.7326 64.5178C49.7326 62.956 48.722 61.9455 47.4359 61.9455C46.5172 61.9455 45.5067 62.4048 45.5067 64.1503C45.5067 65.712 46.4254 66.8144 47.8952 66.8144C48.4464 66.8135 49.7326 66.6307 49.7326 64.5178Z" fill="black"/>
<path fill-rule="evenodd" clip-rule="evenodd" d="M54.2331 62.0365L53.0389 62.1292C52.5795 62.1292 52.3958 62.1292 52.3039 62.3121C52.2121 62.4039 52.1202 62.4967 52.1202 62.5886C52.1202 62.5886 52.1202 62.6804 52.0283 62.6804C52.0283 62.6804 52.0283 62.5886 52.0283 62.4976C52.0283 62.4048 52.1202 61.7626 52.1202 61.669C52.2121 61.5771 52.2121 61.5771 52.2121 61.5771C52.3039 61.5771 52.3958 61.669 52.5795 61.669C52.7633 61.669 53.1307 61.669 53.3145 61.669H56.4379C56.8973 61.669 57.081 61.5771 57.1729 61.5771C57.2647 61.5771 57.2647 61.669 57.2647 61.7618C57.2647 61.9446 57.2647 62.4039 57.2647 62.5886C57.2647 62.6804 57.1729 62.6804 57.1729 62.6804C57.081 62.6804 57.081 62.6804 57.081 62.5886V62.4967C57.081 62.3121 56.8054 62.1292 56.1623 62.1292L55.1518 62.0365V65.0681C55.1518 65.712 55.1518 66.2641 55.2437 66.5379C55.2437 66.8144 55.2437 66.9054 55.5193 66.9982C55.6111 66.9982 55.7949 66.9982 55.8867 66.9982C55.9786 66.9982 56.0705 66.9982 56.0705 67.09C56.0705 67.09 55.9786 67.09 55.8867 67.09C55.3355 67.09 54.8762 67.09 54.6925 67.09C54.5087 67.09 53.9575 67.09 53.6819 67.09C53.5901 67.09 53.4982 67.09 53.4982 67.09C53.4982 66.9982 53.5901 66.9982 53.6819 66.9982C53.7738 66.9982 53.8657 66.9982 53.9575 66.9982C54.0494 66.9054 54.1413 66.8135 54.1413 66.5379C54.2331 66.2632 54.2331 65.7112 54.2331 65.0681V62.0365Z" fill="black"/>
<path fill-rule="evenodd" clip-rule="evenodd" d="M59.3785 63.7828C59.3785 62.6804 59.3785 62.4976 59.3785 62.2211C59.3785 61.9446 59.2866 61.8536 59.1029 61.8536C59.011 61.8536 58.8273 61.7618 58.7354 61.7618C58.6436 61.7618 58.6436 61.7618 58.6436 61.7618C58.6436 61.669 58.6436 61.669 58.8273 61.669C59.1948 61.669 59.746 61.669 59.9297 61.669C60.2053 61.669 61.6752 61.669 61.8589 61.669C62.0426 61.669 62.1345 61.669 62.2264 61.669L62.3182 61.5771C62.4101 61.5771 62.4101 61.669 62.4101 61.669C62.4101 61.7618 62.3182 61.8536 62.3182 62.1292C62.3182 62.2211 62.3182 62.4967 62.2264 62.5886C62.2264 62.6804 62.2264 62.6804 62.2264 62.6804C62.1345 62.6804 62.1345 62.6804 62.1345 62.5886C62.1345 62.5886 62.1345 62.4039 62.0426 62.3121C62.0426 62.2202 61.9508 62.1292 61.5824 62.1292C61.3987 62.0365 60.5719 62.0365 60.48 62.0365C60.3881 62.0365 60.3881 62.0365 60.3881 62.1292V63.9666C60.3881 63.9666 60.3881 64.0584 60.48 64.0584C60.6637 64.0584 61.4905 64.0584 61.6743 64.0584C61.858 63.9666 62.0426 63.9666 62.0426 63.8738C62.1345 63.8738 62.1345 63.782 62.2264 63.782C62.2264 63.782 62.2264 63.782 62.2264 63.8738C62.2264 63.8738 62.2264 64.0584 62.2264 64.4259C62.1345 64.5178 62.1345 64.7934 62.1345 64.8852C62.1345 64.9771 62.1345 64.9771 62.0426 64.9771C62.0426 64.8852 62.0426 64.7943 61.9508 64.7024C61.9508 64.5178 61.8589 64.4259 61.5824 64.4259C61.3987 64.4259 60.6637 64.4259 60.48 64.4259C60.3881 64.4259 60.3881 64.4259 60.3881 64.4259V65.0681C60.3881 65.2527 60.3881 65.8966 60.3881 66.1705C60.3881 66.6307 60.5719 66.7226 61.3068 66.7226C61.4905 66.7226 61.858 66.7226 62.0417 66.6307C62.2255 66.5379 62.3173 66.4461 62.4092 66.1705C62.4092 66.0786 62.4092 65.9876 62.5011 65.9876C62.5929 65.9876 62.5929 66.0795 62.5929 66.1705C62.5929 66.3551 62.5011 66.8144 62.5011 66.999C62.4092 67.1819 62.3173 67.1819 62.0417 67.1819C60.8475 67.1819 60.2963 67.09 59.8369 67.09C59.7451 67.09 59.1939 67.09 58.9183 67.09C58.8264 67.09 58.7345 67.09 58.7345 67.09C58.7345 66.9982 58.7345 66.9982 58.8264 66.9982C59.0101 66.9982 59.102 66.9982 59.1939 66.9982C59.2857 66.9054 59.3776 66.8135 59.3776 66.5379C59.3776 66.2632 59.3776 65.7112 59.3776 65.0681L59.3785 63.7828Z" fill="black"/>
<path fill-rule="evenodd" clip-rule="evenodd" d="M66.1752 65.068C66.1752 65.9876 66.1752 66.4469 66.3589 66.5379C66.4508 66.7225 66.6345 66.7225 67.2776 66.7225C67.6459 66.7225 68.0125 66.7225 68.1962 66.5379C68.2881 66.446 68.38 66.2632 68.38 66.0785C68.38 66.0785 68.38 65.9867 68.4718 65.9867C68.4718 65.9867 68.5637 65.9867 68.5637 66.0785C68.5637 66.1704 68.4718 66.7225 68.38 66.9053C68.38 67.09 68.2881 67.1818 67.9206 67.1818C66.8182 67.1818 66.267 67.09 65.624 67.09C65.4402 67.09 64.9809 67.09 64.7053 67.09C64.6134 67.09 64.5216 67.09 64.5216 67.09C64.5216 66.9981 64.5216 66.9981 64.6134 66.9981C64.7972 66.9981 64.889 66.9981 64.889 66.9981C65.0728 66.9053 65.0728 66.8135 65.1646 66.5379C65.1646 66.2632 65.1646 65.7111 65.1646 65.068V63.7828C65.1646 62.6804 65.1646 62.4975 65.1646 62.221C65.1646 61.9445 65.0728 61.8536 64.7972 61.8536C64.7972 61.8536 64.7053 61.7617 64.6134 61.7617C64.5216 61.7617 64.4297 61.7617 64.4297 61.7617C64.4297 61.6689 64.5216 61.6689 64.6134 61.6689C64.9809 61.6689 65.4402 61.6689 65.7158 61.6689C65.8996 61.6689 66.4508 61.6689 66.7272 61.6689C66.8191 61.6689 66.911 61.6689 66.911 61.7617C66.911 61.7617 66.8191 61.7617 66.7272 61.7617C66.6354 61.7617 66.5435 61.8536 66.4507 61.8536C66.267 61.8536 66.1752 61.9454 66.1752 62.221C66.1752 62.4966 66.1752 62.6804 66.1752 63.7828V65.068Z" fill="black"/>
<path fill-rule="evenodd" clip-rule="evenodd" d="M70.3996 66.9982C70.3077 66.9982 70.2158 66.9055 70.2158 66.8136C70.2158 66.3543 70.3077 65.9868 70.3077 65.8022C70.3077 65.7103 70.3077 65.6193 70.3996 65.6193C70.4914 65.6193 70.4914 65.7112 70.4914 65.8022C70.4914 65.8949 70.4914 65.9868 70.5833 66.1697C70.6752 66.7217 71.1345 66.9046 71.6866 66.9046C72.3296 66.9046 72.6971 66.4453 72.6971 66.0778C72.6971 65.7103 72.6052 65.3429 71.9622 64.8835L71.5947 64.607C70.676 64.0567 70.3996 63.5046 70.3996 62.9543C70.3996 62.1275 71.1345 61.5754 72.2369 61.5754C72.6962 61.5754 73.0637 61.6673 73.2474 61.6673C73.3393 61.6673 73.3393 61.7601 73.3393 61.7601C73.3393 61.8519 73.3393 62.1275 73.3393 62.6778C73.3393 62.7697 73.3393 62.8625 73.2474 62.8625C73.1556 62.8625 73.1556 62.8625 73.1556 62.7697C73.1556 62.6778 73.1556 62.4022 72.9718 62.2194C72.88 62.1275 72.6044 61.9429 72.145 61.9429C71.502 61.9429 71.2264 62.2194 71.2264 62.6778C71.2264 62.9543 71.4101 63.2299 72.0532 63.6893L72.2369 63.8721C73.1556 64.5161 73.523 64.9745 73.523 65.7094C73.523 66.0769 73.3393 66.629 72.7881 66.9037C72.4206 67.1802 71.9613 67.1802 71.502 67.1802C71.1345 67.1811 70.7679 67.1811 70.3996 66.9982Z" fill="black"/>
<path fill-rule="evenodd" clip-rule="evenodd" d="M79.5867 63.9675C79.2193 63.5073 79.1274 63.2326 79.1274 62.8651C79.1274 62.3131 79.6795 61.5781 81.0566 61.5781C81.4241 61.5781 81.7915 61.67 81.9753 61.7627C82.159 61.7627 82.159 61.8546 82.159 61.9456C82.159 62.1302 82.0671 62.6805 82.0671 62.8651C81.9753 62.957 81.9753 62.957 81.9753 62.957C81.8834 62.957 81.8834 62.957 81.8834 62.8651C81.8834 62.5887 81.7915 62.4049 81.6997 62.2212C81.5159 62.0366 81.2403 61.8537 80.781 61.8537C80.5054 61.8537 79.9542 62.1302 79.9542 62.6805C79.9542 63.4155 80.5973 63.9675 81.2403 64.6097C81.5159 64.8862 82.4346 65.7121 82.6183 65.804C82.8021 65.6211 82.9858 65.1618 82.9858 64.7034C82.9858 64.6106 82.9858 64.4269 82.8939 64.3341C82.7102 64.2423 82.6174 64.2423 82.4337 64.2423H82.3418C82.3418 64.1504 82.4337 64.1504 82.5256 64.1504C82.7093 64.1504 82.9849 64.1504 83.4442 64.1504C83.628 64.1504 83.7198 64.2423 83.7198 64.3332C83.7198 64.8853 83.3524 65.5293 82.893 65.9877C83.4442 66.4471 83.8117 66.6317 83.9954 66.7227C84.271 66.9055 84.7304 66.9991 84.8222 66.9991C84.9141 66.9991 84.9141 66.9991 84.9141 67.091C84.9141 67.091 84.9141 67.091 84.7304 67.091H84.0864C83.2596 67.091 82.984 66.9991 82.2491 66.5389C82.0654 66.8154 81.5142 67.1829 80.4118 67.1829C78.7582 67.1829 78.2988 66.2651 78.2988 65.6211C78.3015 64.7935 79.1274 64.1504 79.5867 63.9675ZM81.9761 66.3552C81.5159 65.9877 80.7819 65.2528 80.5981 65.0682C80.4144 64.8853 79.8632 64.3332 79.7713 64.1504C79.4949 64.3332 79.2193 64.7025 79.2193 65.2528C79.2193 66.1706 79.8623 66.7227 80.6891 66.7227C81.3331 66.7227 81.7924 66.4462 81.9761 66.3552Z" fill="black"/>
<path fill-rule="evenodd" clip-rule="evenodd" d="M88.9576 63.7828C88.9576 62.6804 88.9576 62.4975 88.9576 62.221C88.9576 61.9445 88.8657 61.8536 88.6811 61.8536C88.5892 61.8536 88.4055 61.7617 88.3145 61.7617C88.2227 61.7617 88.2227 61.7617 88.2227 61.7617C88.2227 61.6689 88.2227 61.6689 88.4064 61.6689C88.7739 61.6689 89.2341 61.6689 89.4169 61.6689C89.6934 61.6689 90.3356 61.6689 90.5193 61.6689C91.0705 61.6689 91.5307 61.7617 91.9892 61.9454C92.1729 62.13 92.5404 62.4975 92.5404 62.9568C92.5404 63.5072 92.2648 63.9683 91.438 64.6096C92.1729 65.3445 92.7241 65.9884 93.1843 66.4469C93.5509 66.9062 93.9184 66.9062 94.0111 66.999C94.103 66.999 94.1949 66.999 94.2867 66.999C94.2867 66.999 94.3786 66.999 94.3786 67.0908C94.3786 67.0908 94.2867 67.0908 94.1949 67.0908H93.4599C93.0006 67.0908 92.816 67.0908 92.6323 66.999C92.2657 66.8144 91.9892 66.4469 91.5307 65.8966C91.2543 65.5291 90.8868 65.068 90.7958 64.8852C90.7039 64.8852 90.7039 64.8852 90.6121 64.8852H89.9681H89.8763V64.977C89.8763 65.712 89.8763 66.264 89.9681 66.5388C89.9681 66.8152 90.06 66.9062 90.2446 66.999C90.3365 66.999 90.5202 66.999 90.6121 66.999C90.7039 66.999 90.7039 66.999 90.7039 67.0908C90.7039 67.0908 90.7039 67.0908 90.6121 67.0908C90.1519 67.0908 89.5097 67.0908 89.4169 67.0908C89.2341 67.0908 88.7739 67.0908 88.4991 67.0908C88.4073 67.0908 88.3154 67.0908 88.3154 67.0908C88.3154 66.999 88.3154 66.999 88.4073 66.999C88.591 66.999 88.6829 66.999 88.6829 66.999C88.8675 66.9062 88.9594 66.8144 88.9594 66.5388C88.9594 66.264 88.9594 65.712 88.9594 65.0689V63.7828H88.9576ZM89.8763 64.3331C89.8763 64.4258 89.8763 64.4258 89.9681 64.4258C90.1519 64.5177 90.3356 64.5177 90.6121 64.5177C90.8877 64.5177 90.9795 64.5177 91.1633 64.4258C91.347 64.2412 91.6226 63.9665 91.6226 63.3234C91.6226 62.312 90.8877 62.0364 90.4283 62.0364C90.1519 62.0364 90.0609 62.0364 89.9681 62.0364C89.8763 62.0364 89.8763 62.1292 89.8763 62.1292V64.3331Z" fill="black"/>
<path fill-rule="evenodd" clip-rule="evenodd" d="M95.7535 63.7828C95.7535 62.6804 95.7535 62.4976 95.7535 62.2211C95.7535 61.9446 95.6616 61.8536 95.386 61.8536C95.386 61.8536 95.2023 61.7618 95.1104 61.7618C95.0186 61.7618 95.0186 61.7618 95.0186 61.7618C95.0186 61.669 95.0186 61.669 95.1104 61.669C95.5698 61.669 96.0291 61.669 96.3047 61.669C96.4884 61.669 98.0502 61.669 98.2339 61.669C98.3258 61.669 98.5104 61.669 98.5104 61.669C98.6022 61.669 98.6022 61.5771 98.6941 61.5771V61.669C98.6941 61.7618 98.6941 61.8536 98.6941 62.1292C98.6941 62.2211 98.6022 62.4967 98.6022 62.5886C98.6022 62.6804 98.6022 62.6804 98.5104 62.6804C98.5104 62.6804 98.5104 62.6804 98.5104 62.5886C98.5104 62.5886 98.4185 62.4039 98.4185 62.3121C98.3266 62.2202 98.3266 62.1292 97.8682 62.1292C97.7763 62.0365 96.9486 62.0365 96.7649 62.0365C96.7649 62.0365 96.7649 62.0365 96.7649 62.1292V63.9666V64.0584C96.9486 64.0584 97.8682 64.0584 98.051 64.0584C98.2348 63.9666 98.3275 63.9666 98.4185 63.8738C98.5104 63.8738 98.5104 63.782 98.5104 63.782C98.6022 63.782 98.6022 63.782 98.6022 63.8738C98.6022 63.8738 98.5104 64.0584 98.5104 64.4259C98.5104 64.5178 98.5104 64.7934 98.5104 64.8852C98.5104 64.9771 98.5104 64.9771 98.4185 64.9771H98.3266C98.3266 64.8852 98.3266 64.7943 98.3266 64.7024C98.3266 64.5178 98.1429 64.4259 97.8673 64.4259C97.7754 64.4259 96.9478 64.4259 96.764 64.4259V65.0681C96.764 65.2527 96.764 65.8966 96.764 66.1705C96.764 66.6307 96.8559 66.7226 97.6827 66.7226C97.8673 66.7226 98.2339 66.7226 98.4176 66.6307C98.6014 66.5379 98.6941 66.4461 98.7851 66.1705C98.7851 66.0786 98.7851 65.9876 98.877 65.9876C98.877 65.9876 98.877 66.0795 98.877 66.1705C98.877 66.3551 98.877 66.8144 98.7851 66.999C98.7851 67.1819 98.6932 67.1819 98.4176 67.1819C97.2234 67.1819 96.6722 67.09 96.2137 67.09C96.03 67.09 95.5698 67.09 95.2023 67.09C95.1104 67.09 95.1104 67.09 95.1104 67.09C95.1104 66.9982 95.1104 66.9982 95.2023 66.9982C95.2942 66.9982 95.386 66.9982 95.4788 66.9982C95.6625 66.9054 95.6625 66.8135 95.7544 66.5379C95.7544 66.2632 95.7544 65.7112 95.7544 65.0681L95.7535 63.7828Z" fill="black"/>
<path fill-rule="evenodd" clip-rule="evenodd" d="M101.448 66.9982C101.357 66.9982 101.266 66.9055 101.266 66.8136C101.266 66.3543 101.357 65.9868 101.357 65.8022C101.357 65.7103 101.357 65.6193 101.449 65.6193C101.541 65.6193 101.541 65.7112 101.541 65.8022C101.541 65.8949 101.541 65.9868 101.541 66.1697C101.725 66.7217 102.184 66.9046 102.735 66.9046C103.379 66.9046 103.747 66.4453 103.747 66.0778C103.747 65.7103 103.655 65.3429 103.012 64.8835L102.645 64.607C101.726 64.0567 101.449 63.5046 101.449 62.9543C101.449 62.1275 102.184 61.5754 103.287 61.5754C103.747 61.5754 104.113 61.6673 104.298 61.6673C104.39 61.6673 104.39 61.7601 104.39 61.7601C104.39 61.8519 104.39 62.1275 104.39 62.6778C104.39 62.7697 104.39 62.8625 104.298 62.8625C104.206 62.8625 104.206 62.8625 104.206 62.7697C104.206 62.6778 104.206 62.4022 104.023 62.2194C103.931 62.1275 103.655 61.9429 103.196 61.9429C102.552 61.9429 102.277 62.2194 102.277 62.6778C102.277 62.9543 102.461 63.2299 103.104 63.6893L103.288 63.8721C104.206 64.5161 104.574 64.9745 104.574 65.7094C104.574 66.0769 104.39 66.629 103.839 66.9037C103.471 67.1802 103.012 67.1802 102.553 67.1802C102.092 67.1811 101.816 67.1811 101.448 66.9982Z" fill="black"/>
<path fill-rule="evenodd" clip-rule="evenodd" d="M106.778 64.4259C106.778 63.1389 107.605 61.5771 109.994 61.5771C111.923 61.5771 113.117 62.5886 113.117 64.2413C113.117 65.8958 111.831 67.181 109.902 67.181C107.604 67.181 106.778 65.7112 106.778 64.4259ZM112.014 64.5178C112.014 62.956 111.002 61.9455 109.716 61.9455C108.799 61.9455 107.787 62.4048 107.787 64.1503C107.787 65.712 108.706 66.8144 110.176 66.8144C110.728 66.8135 112.014 66.6307 112.014 64.5178Z" fill="black"/>
<path fill-rule="evenodd" clip-rule="evenodd" d="M115.321 63.7828C115.321 62.6804 115.321 62.4975 115.321 62.221C115.321 61.9445 115.229 61.8536 114.953 61.8536C114.953 61.8536 114.77 61.7617 114.678 61.7617C114.586 61.7617 114.586 61.7617 114.586 61.7617C114.586 61.6689 114.586 61.6689 114.678 61.6689C115.137 61.6689 115.596 61.6689 115.78 61.6689C116.056 61.6689 116.607 61.6689 116.883 61.6689C117.342 61.6689 117.893 61.7617 118.352 61.9454C118.535 62.13 118.812 62.4975 118.812 62.9568C118.812 63.5072 118.628 63.9683 117.8 64.6096C118.535 65.3445 119.087 65.9884 119.547 66.4469C119.914 66.9062 120.282 66.9062 120.374 66.999C120.465 66.999 120.557 66.999 120.557 66.999C120.649 66.999 120.649 66.999 120.649 67.0908C120.649 67.0908 120.649 67.0908 120.557 67.0908H119.821C119.362 67.0908 119.178 67.0908 118.995 66.999C118.627 66.8144 118.351 66.4469 117.892 65.8966C117.616 65.5291 117.249 65.068 117.157 64.8852C117.065 64.8852 117.065 64.8852 116.974 64.8852H116.331C116.239 64.8852 116.239 64.8852 116.239 64.8852V64.977C116.239 65.712 116.239 66.264 116.331 66.5388C116.331 66.8152 116.331 66.9062 116.606 66.999C116.698 66.999 116.883 66.999 116.974 66.999C117.065 66.999 117.065 66.999 117.065 67.0908C117.065 67.0908 116.974 67.0908 116.883 67.0908C116.422 67.0908 115.871 67.0908 115.78 67.0908C115.596 67.0908 115.136 67.0908 114.862 67.0908C114.678 67.0908 114.678 67.0908 114.678 67.0908C114.678 66.999 114.678 66.999 114.77 66.999C114.953 66.999 115.046 66.999 115.046 66.999C115.23 66.9062 115.23 66.8144 115.322 66.5388C115.322 66.264 115.322 65.712 115.322 65.0689L115.321 63.7828ZM116.24 64.3331C116.24 64.4258 116.24 64.4258 116.331 64.4258C116.515 64.5177 116.699 64.5177 116.883 64.5177C117.25 64.5177 117.342 64.5177 117.434 64.4258C117.709 64.2412 117.893 63.9665 117.893 63.3234C117.893 62.312 117.158 62.0364 116.699 62.0364C116.515 62.0364 116.422 62.0364 116.331 62.0364C116.24 62.0364 116.24 62.1292 116.24 62.1292V64.3331Z" fill="black"/>
<path fill-rule="evenodd" clip-rule="evenodd" d="M122.67 62.0365L121.568 62.1292C121.108 62.1292 120.924 62.1292 120.833 62.3121C120.741 62.4039 120.65 62.4967 120.65 62.5886C120.65 62.5886 120.65 62.6804 120.558 62.6804C120.558 62.6804 120.466 62.5886 120.466 62.4976C120.466 62.4048 120.65 61.7626 120.65 61.669C120.65 61.5771 120.741 61.5771 120.741 61.5771C120.833 61.5771 120.925 61.669 121.109 61.669C121.293 61.669 121.569 61.669 121.844 61.669H124.967C125.427 61.669 125.61 61.5771 125.701 61.5771C125.793 61.5771 125.793 61.669 125.793 61.7618C125.793 61.9446 125.701 62.4039 125.701 62.5886C125.701 62.6804 125.701 62.6804 125.701 62.6804C125.609 62.6804 125.609 62.6804 125.609 62.5886V62.4967C125.518 62.3121 125.334 62.1292 124.691 62.1292L123.68 62.0365V65.0681C123.68 65.712 123.68 66.2641 123.68 66.5379C123.772 66.8144 123.772 66.9054 124.048 66.9982C124.14 66.9982 124.323 66.9982 124.415 66.9982C124.507 66.9982 124.507 66.9982 124.507 67.09C124.507 67.09 124.507 67.09 124.415 67.09C123.864 67.09 123.404 67.09 123.129 67.09C122.945 67.09 122.485 67.09 122.21 67.09C122.119 67.09 122.027 67.09 122.027 67.09C122.027 66.9982 122.027 66.9982 122.119 66.9982C122.303 66.9982 122.395 66.9982 122.395 66.9982C122.579 66.9054 122.671 66.8135 122.671 66.5379C122.671 66.2632 122.671 65.7112 122.671 65.0681L122.67 62.0365Z" fill="black"/>
<path fill-rule="evenodd" clip-rule="evenodd" d="M127.355 66.9982C127.171 66.9982 127.171 66.9055 127.171 66.8136C127.171 66.3543 127.263 65.9868 127.263 65.8022C127.263 65.7103 127.263 65.6193 127.355 65.6193C127.355 65.6193 127.447 65.7112 127.447 65.8022C127.447 65.8949 127.447 65.9868 127.447 66.1697C127.63 66.7217 128.09 66.9046 128.549 66.9046C129.283 66.9046 129.651 66.4453 129.651 66.0778C129.651 65.7103 129.468 65.3429 128.824 64.8835L128.548 64.607C127.629 64.0567 127.353 63.5046 127.353 62.9543C127.353 62.1275 128.088 61.5754 129.19 61.5754C129.65 61.5754 130.017 61.6673 130.201 61.6673C130.293 61.6673 130.293 61.7601 130.293 61.7601C130.293 61.8519 130.293 62.1275 130.293 62.6778C130.293 62.7697 130.201 62.8625 130.201 62.8625C130.109 62.8625 130.109 62.8625 130.109 62.7697C130.109 62.6778 130.017 62.4022 129.925 62.2194C129.741 62.1275 129.558 61.9429 129.006 61.9429C128.455 61.9429 128.088 62.2194 128.088 62.6778C128.088 62.9543 128.272 63.2299 128.915 63.6893L129.191 63.8721C130.11 64.5161 130.477 64.9745 130.477 65.7094C130.477 66.0769 130.293 66.629 129.742 66.9037C129.282 67.1802 128.915 67.1802 128.456 67.1802C127.998 67.1811 127.63 67.1811 127.355 66.9982Z" fill="black"/>
</g>
<path d="M45.0078 94.875C44.8594 94.7656 44.8047 94.5781 44.9062 94.2656L46.2344 90.2422L42.7891 87.75C42.5391 87.5703 42.4609 87.3906 42.5156 87.2031C42.5781 87.0234 42.7422 86.9219 43.0625 86.9219H47.3047L48.6016 82.8984C48.7031 82.5938 48.8516 82.4688 49.0391 82.4688C49.2344 82.4688 49.375 82.5938 49.4766 82.8984L50.7734 86.9219H55.0156C55.3359 86.9219 55.5 87.0234 55.5625 87.2031C55.6172 87.3906 55.5469 87.5703 55.2891 87.75L51.8438 90.2422L53.1719 94.2656C53.2734 94.5781 53.2266 94.7656 53.0703 94.875C52.9141 94.9922 52.7188 94.9688 52.4688 94.7891L49.0391 92.2734L45.6094 94.7891C45.3594 94.9688 45.1641 94.9922 45.0078 94.875ZM60.5859 94.875C60.4375 94.7656 60.3828 94.5781 60.4844 94.2656L61.8125 90.2422L58.3672 87.75C58.1172 87.5703 58.0391 87.3906 58.0938 87.2031C58.1562 87.0234 58.3203 86.9219 58.6406 86.9219H62.8828L64.1797 82.8984C64.2812 82.5938 64.4297 82.4688 64.6172 82.4688C64.8125 82.4688 64.9531 82.5938 65.0547 82.8984L66.3516 86.9219H70.5938C70.9141 86.9219 71.0781 87.0234 71.1406 87.2031C71.1953 87.3906 71.125 87.5703 70.8672 87.75L67.4219 90.2422L68.75 94.2656C68.8516 94.5781 68.8047 94.7656 68.6484 94.875C68.4922 94.9922 68.2969 94.9688 68.0469 94.7891L64.6172 92.2734L61.1875 94.7891C60.9375 94.9688 60.7422 94.9922 60.5859 94.875ZM76.1641 94.875C76.0156 94.7656 75.9609 94.5781 76.0625 94.2656L77.3906 90.2422L73.9453 87.75C73.6953 87.5703 73.6172 87.3906 73.6719 87.2031C73.7344 87.0234 73.8984 86.9219 74.2188 86.9219H78.4609L79.7578 82.8984C79.8594 82.5938 80.0078 82.4688 80.1953 82.4688C80.3906 82.4688 80.5312 82.5938 80.6328 82.8984L81.9297 86.9219H86.1719C86.4922 86.9219 86.6562 87.0234 86.7188 87.2031C86.7734 87.3906 86.7031 87.5703 86.4453 87.75L83 90.2422L84.3281 94.2656C84.4297 94.5781 84.3828 94.7656 84.2266 94.875C84.0703 94.9922 83.875 94.9688 83.625 94.7891L80.1953 92.2734L76.7656 94.7891C76.5156 94.9688 76.3203 94.9922 76.1641 94.875ZM91.7422 94.875C91.5938 94.7656 91.5391 94.5781 91.6406 94.2656L92.9688 90.2422L89.5234 87.75C89.2734 87.5703 89.1953 87.3906 89.25 87.2031C89.3125 87.0234 89.4766 86.9219 89.7969 86.9219H94.0391L95.3359 82.8984C95.4375 82.5938 95.5859 82.4688 95.7734 82.4688C95.9688 82.4688 96.1094 82.5938 96.2109 82.8984L97.5078 86.9219H101.75C102.07 86.9219 102.234 87.0234 102.297 87.2031C102.352 87.3906 102.281 87.5703 102.023 87.75L98.5781 90.2422L99.9062 94.2656C100.008 94.5781 99.9609 94.7656 99.8047 94.875C99.6484 94.9922 99.4531 94.9688 99.2031 94.7891L95.7734 92.2734L92.3438 94.7891C92.0938 94.9688 91.8984 94.9922 91.7422 94.875ZM107.32 94.875C107.172 94.7656 107.117 94.5781 107.219 94.2656L108.547 90.2422L105.102 87.75C104.852 87.5703 104.773 87.3906 104.828 87.2031C104.891 87.0234 105.055 86.9219 105.375 86.9219H109.617L110.914 82.8984C111.016 82.5938 111.164 82.4688 111.352 82.4688C111.547 82.4688 111.688 82.5938 111.789 82.8984L113.086 86.9219H117.328C117.648 86.9219 117.812 87.0234 117.875 87.2031C117.93 87.3906 117.859 87.5703 117.602 87.75L114.156 90.2422L115.484 94.2656C115.586 94.5781 115.539 94.7656 115.383 94.875C115.227 94.9922 115.031 94.9688 114.781 94.7891L111.352 92.2734L107.922 94.7891C107.672 94.9688 107.477 94.9922 107.32 94.875Z" fill="#333333"/>
<defs>
<clipPath id="clip0_2032_9444">
<rect width="155.246" height="54.5644" fill="white" transform="translate(2.5166 12.6167)"/>
</clipPath>
</defs>
</svg>
