<svg width="33" height="32" viewBox="0 0 33 32" fill="none" xmlns="http://www.w3.org/2000/svg">
<path d="M1.55385 27.5223H30.4556C31.0449 27.5223 31.527 27.0268 31.527 26.4375C31.527 25.8483 31.0449 25.3661 30.4556 25.3661H1.55385C0.964565 25.3661 0.482422 25.8483 0.482422 26.4375C0.482422 27.0268 0.964565 27.5223 1.55385 27.5223Z" fill="black"/>
<path d="M3.51039 13.4195L26.4523 19.5936C29.0238 20.2901 31.6354 19.607 31.997 17.6114C32.2917 15.7767 30.2827 14.1159 27.8854 13.6472L19.5416 11.9865C18.9657 11.8793 18.631 11.6517 18.2291 11.0757L11.1443 0.883782C10.9166 0.562353 10.6086 0.348067 10.2336 0.254318L9.28272 0.013246C8.9479 -0.0671112 8.69343 0.227531 8.78718 0.64271L11.3586 11.5311L12.2024 10.54L5.17111 9.16057L7.42111 10.5534L2.01039 4.232C1.74254 3.92397 1.46129 3.83021 0.979144 3.93735L0.470215 4.04449C0.108608 4.11146 -0.0521064 4.39271 0.0148578 4.71414L1.4345 11.6517C1.622 12.5355 2.35861 13.1114 3.51039 13.4195Z" fill="black"/>
</svg>
