<svg width="20" height="20" viewBox="0 0 20 20" fill="none" xmlns="http://www.w3.org/2000/svg">
<g clip-path="url(#clip0_265_6578)">
<path d="M10 20C15.5228 20 20 15.5228 20 10C20 4.47715 15.5228 0 10 0C4.47715 0 0 4.47715 0 10C0 15.5228 4.47715 20 10 20Z" fill="#F0F0F0"/>
<path d="M20 10C20 4.47715 15.5228 0 10 0C4.47715 0 0 4.47715 0 10H20Z" fill="#428BC1"/>
<circle cx="10" cy="10" r="2.5" fill="#FFD700"/>
<circle cx="10" cy="10" r="1.5" fill="#428BC1"/>
<path d="M10 6L10.5 7L9.5 7L10 6Z" fill="#FFD700"/>
<path d="M10 7L10.5 8L9.5 8L10 7Z" fill="#FFD700"/>
<path d="M10 8L10.5 9L9.5 9L10 8Z" fill="#FFD700"/>
<path d="M10 11L10.5 12L9.5 12L10 11Z" fill="#FFD700"/>
<path d="M10 12L10.5 13L9.5 13L10 12Z" fill="#FFD700"/>
<path d="M10 13L10.5 14L9.5 14L10 13Z" fill="#FFD700"/>
<path d="M6 10L7 10.5L7 9.5L6 10Z" fill="#FFD700"/>
<path d="M7 10L8 10.5L8 9.5L7 10Z" fill="#FFD700"/>
<path d="M8 10L9 10.5L9 9.5L8 10Z" fill="#FFD700"/>
<path d="M11 10L12 10.5L12 9.5L11 10Z" fill="#FFD700"/>
<path d="M12 10L13 10.5L13 9.5L12 10Z" fill="#FFD700"/>
<path d="M13 10L14 10.5L14 9.5L13 10Z" fill="#FFD700"/>
</g>
<defs>
<clipPath id="clip0_265_6578">
<rect width="20" height="20" fill="white"/>
</clipPath>
</defs>
</svg> 