<svg width="43" height="43" viewBox="0 0 43 43" fill="none" xmlns="http://www.w3.org/2000/svg">
<g opacity="0.5">
<path d="M41.6212 21.3945C41.6035 19.3379 38.8087 17.8438 35.4512 17.8438H28.3672C27.3829 17.8438 27.0137 17.6855 26.4337 17.0176L14.6211 4.13281C14.252 3.71094 13.7949 3.5 13.2676 3.5H11.2285C10.7715 3.5 10.5078 3.9043 10.7363 4.39648L16.8184 17.8438L7.88867 18.8633L4.70704 13.0273C4.47851 12.5879 4.09179 12.3945 3.51171 12.3945H2.75586C2.29883 12.3945 2 12.6934 2 13.1504V29.6387C2 30.0958 2.29883 30.377 2.75586 30.377H3.51171C4.09179 30.377 4.47851 30.1836 4.70704 29.7617L7.88867 23.9258L16.8184 24.9453L10.7363 38.3925C10.5078 38.8671 10.7715 39.2891 11.2285 39.2891H13.2676C13.7949 39.2891 14.252 39.0605 14.6211 38.6562L26.4337 25.7539C27.0137 25.1035 27.3829 24.9453 28.3672 24.9453H35.4512C38.8087 24.9453 41.6035 23.4336 41.6212 21.3945Z" fill="black" fill-opacity="0.85"/>
</g>
</svg>
