<svg width="250" height="80" viewBox="0 0 250 80" fill="none" xmlns="http://www.w3.org/2000/svg">
<g clip-path="url(#clip0_125_17308)">
<path d="M27.5333 64.6503C27.5333 64.6503 32.15 62.5936 33.4266 58.6303C34.7 54.6703 32.1466 50.3036 32.1466 50.3036C32.1466 50.3036 27.5266 52.3636 26.2533 56.3236C24.98 60.2869 27.5333 64.6503 27.5333 64.6503Z" fill="url(#paint0_linear_125_17308)"/>
<path d="M25.2757 65.5965C25.2757 65.5965 20.419 67.0031 16.889 64.7965C13.3624 62.5898 12.499 57.6065 12.499 57.6065C12.499 57.6065 17.3557 56.1998 20.8824 58.4065C24.4124 60.6131 25.2757 65.5965 25.2757 65.5965Z" fill="url(#paint1_linear_125_17308)"/>
<path d="M22.6392 50.7233C22.6392 50.7233 22.1658 45.69 24.9925 42.6333C27.8158 39.58 32.8725 39.66 32.8725 39.66C32.8725 39.66 33.3492 44.6933 30.5225 47.75C27.6958 50.8067 22.6392 50.7233 22.6392 50.7233Z" fill="url(#paint2_linear_125_17308)"/>
<path d="M21.8217 23.1768C21.8217 23.1768 27.9817 20.4335 29.6784 15.1535C32.1217 7.56016 28.745 1.66016 28.745 1.66016C28.745 1.66016 20.9317 3.86016 18.4617 11.5435C15.9884 19.2268 21.8217 23.1768 21.8217 23.1768Z" fill="url(#paint3_linear_125_17308)"/>
<path d="M19.3521 36.2133C19.3521 36.2133 11.5088 36.1133 7.26547 31.2533C3.0188 26.3933 3.9788 18.61 3.9788 18.61C3.9788 18.61 11.8221 18.7067 16.0655 23.5667C20.3121 28.43 19.3521 36.2133 19.3521 36.2133Z" fill="url(#paint4_linear_125_17308)"/>
<path d="M21.6138 36.0733C21.6138 36.0733 20.9838 29.36 24.7538 25.29C28.5204 21.22 35.2638 21.33 35.2638 21.33C35.2638 21.33 35.8971 28.0433 32.1237 32.1167C28.3571 36.1867 21.6138 36.0733 21.6138 36.0733Z" fill="url(#paint5_linear_125_17308)"/>
<path d="M21.0683 51.1232C21.0683 51.1232 14.4383 52.3432 10.0516 48.9465C5.66164 45.5498 5.18164 38.8265 5.18164 38.8265C5.18164 38.8265 11.815 37.6065 16.1983 41.0032C20.5883 44.3965 21.0683 51.1232 21.0683 51.1232Z" fill="url(#paint6_linear_125_17308)"/>
<path fill-rule="evenodd" clip-rule="evenodd" d="M24.3764 10.5565C25.0597 10.6698 22.6764 24.0898 22.563 24.7698C20.5964 36.5932 21.2497 57.4198 33.663 75.7198C33.8456 75.9879 33.9196 76.3152 33.8701 76.6357C33.8206 76.9563 33.6513 77.246 33.3964 77.4465C33.2627 77.5503 33.1092 77.6258 32.9453 77.6682C32.7815 77.7107 32.6107 77.7192 32.4434 77.6933C32.2761 77.6674 32.1159 77.6076 31.9725 77.5176C31.8292 77.4276 31.7057 77.3092 31.6097 77.1698C18.6997 58.1765 18.053 36.5932 20.083 24.3598C20.1964 23.6765 23.693 10.4432 24.3764 10.5565Z" fill="url(#paint7_linear_125_17308)"/>
</g>
<g clip-path="url(#clip1_125_17308)">
<path d="M222.466 64.6503C222.466 64.6503 217.849 62.5936 216.573 58.6303C215.299 54.6703 217.853 50.3036 217.853 50.3036C217.853 50.3036 222.473 52.3636 223.746 56.3236C225.019 60.2869 222.466 64.6503 222.466 64.6503Z" fill="url(#paint8_linear_125_17308)"/>
<path d="M224.726 65.5965C224.726 65.5965 229.582 67.0031 233.112 64.7965C236.639 62.5898 237.502 57.6065 237.502 57.6065C237.502 57.6065 232.646 56.1998 229.119 58.4065C225.589 60.6131 224.726 65.5965 224.726 65.5965Z" fill="url(#paint9_linear_125_17308)"/>
<path d="M227.353 50.7233C227.353 50.7233 227.826 45.69 224.999 42.6333C222.176 39.58 217.119 39.66 217.119 39.66C217.119 39.66 216.643 44.6933 219.469 47.75C222.296 50.8067 227.353 50.7233 227.353 50.7233Z" fill="url(#paint10_linear_125_17308)"/>
<path d="M228.177 23.1768C228.177 23.1768 222.017 20.4335 220.32 15.1535C217.877 7.56016 221.253 1.66016 221.253 1.66016C221.253 1.66016 229.067 3.86016 231.537 11.5435C234.01 19.2268 228.177 23.1768 228.177 23.1768Z" fill="url(#paint11_linear_125_17308)"/>
<path d="M230.646 36.2133C230.646 36.2133 238.489 36.1133 242.732 31.2533C246.979 26.3933 246.019 18.61 246.019 18.61C246.019 18.61 238.176 18.7067 233.932 23.5667C229.686 28.43 230.646 36.2133 230.646 36.2133Z" fill="url(#paint12_linear_125_17308)"/>
<path d="M228.383 36.0733C228.383 36.0733 229.013 29.36 225.243 25.29C221.477 21.22 214.733 21.33 214.733 21.33C214.733 21.33 214.1 28.0433 217.873 32.1167C221.64 36.1867 228.383 36.0733 228.383 36.0733Z" fill="url(#paint13_linear_125_17308)"/>
<path d="M228.935 51.1232C228.935 51.1232 235.565 52.3432 239.952 48.9465C244.342 45.5498 244.822 38.8265 244.822 38.8265C244.822 38.8265 238.188 37.6065 233.805 41.0032C229.415 44.3965 228.935 51.1232 228.935 51.1232Z" fill="url(#paint14_linear_125_17308)"/>
<path fill-rule="evenodd" clip-rule="evenodd" d="M225.621 10.5565C224.938 10.6698 227.321 24.0898 227.434 24.7698C229.401 36.5932 228.748 57.4198 216.334 75.7198C216.152 75.9879 216.078 76.3152 216.127 76.6358C216.177 76.9563 216.346 77.246 216.601 77.4465C217.168 77.8865 217.984 77.7632 218.388 77.1698C231.298 58.1765 231.944 36.5932 229.914 24.3598C229.801 23.6765 226.304 10.4432 225.621 10.5565Z" fill="url(#paint15_linear_125_17308)"/>
</g>
<path d="M89.7383 34V17.0898H96.7461C99.8281 17.0898 101.82 18.7539 101.82 21.3203V21.3438C101.82 23.1602 100.438 24.7891 98.6211 25.0352V25.0938C101.012 25.3047 102.629 26.9688 102.629 29.1953V29.2188C102.629 32.1719 100.426 34 96.8164 34H89.7383ZM95.9961 19.4453H92.75V24.2383H95.4805C97.6484 24.2383 98.832 23.3477 98.832 21.7539V21.7305C98.832 20.2656 97.7891 19.4453 95.9961 19.4453ZM95.9609 26.4297H92.75V31.6445H96.125C98.3398 31.6445 99.5352 30.7422 99.5352 29.043V29.0195C99.5352 27.3203 98.3164 26.4297 95.9609 26.4297ZM104.703 34V21.5781H107.621V25.3047H110.012C112.906 25.3047 114.77 26.9922 114.77 29.6406V29.6641C114.77 32.3125 112.906 34 110.012 34H104.703ZM116.176 34V21.5781H119.094V34H116.176ZM109.602 27.5547H107.621V31.75H109.602C110.949 31.75 111.793 30.918 111.793 29.6641V29.6406C111.793 28.375 110.938 27.5547 109.602 27.5547ZM127.379 34.2461C123.441 34.2461 121.273 31.7266 121.273 26.875V26.8516C121.273 19.9492 123.43 17.2188 128.059 17.0547L129.324 17.0078C130.66 16.9727 131.879 16.7734 132.582 16.4453V18.7773C132.148 19.0938 130.93 19.3398 129.5 19.3867L128.293 19.4219C125.129 19.5391 124.051 20.957 123.594 24.2031L123.57 24.3672H123.629C124.414 22.8906 125.879 22.0586 127.883 22.0586C131.223 22.0586 133.391 24.3555 133.391 27.9648V27.9883C133.391 31.8672 131.094 34.2461 127.379 34.2461ZM127.332 31.8906C129.277 31.8906 130.414 30.4961 130.414 28.0352V28.0117C130.414 25.6797 129.277 24.3555 127.332 24.3555C125.387 24.3555 124.25 25.6797 124.25 28.0117V28.0352C124.25 30.4961 125.387 31.8906 127.332 31.8906ZM140.984 34.2461C137.328 34.2461 134.973 31.8086 134.973 27.7891V27.7656C134.973 23.7812 137.363 21.3203 140.984 21.3203C144.594 21.3203 146.996 23.7578 146.996 27.7656V27.7891C146.996 31.8203 144.629 34.2461 140.984 34.2461ZM140.996 31.8906C142.848 31.8906 144.031 30.3906 144.031 27.7891V27.7656C144.031 25.1758 142.824 23.6875 140.984 23.6875C139.156 23.6875 137.949 25.1875 137.949 27.7656V27.7891C137.949 30.4023 139.145 31.8906 140.996 31.8906ZM149.082 38.1016V21.5781H152V23.7227H152.07C152.773 22.2344 154.145 21.3203 155.914 21.3203C159.078 21.3203 161.059 23.7812 161.059 27.7891V27.8008C161.059 31.7852 159.066 34.2461 155.961 34.2461C154.191 34.2461 152.773 33.3555 152.059 31.9023H152V38.1016H149.082ZM155.047 31.7852C156.922 31.7852 158.082 30.25 158.082 27.8008V27.7891C158.082 25.3047 156.91 23.7812 155.047 23.7812C153.242 23.7812 151.988 25.3516 151.988 27.7891V27.8008C151.988 30.2266 153.254 31.7852 155.047 31.7852ZM57.5234 63V50.5781H68.4805V63H65.5508V52.8281H60.4414V63H57.5234ZM74.7617 63.2109C72.2656 63.2109 70.5898 61.6758 70.5898 59.4609V59.4375C70.5898 57.2344 72.3125 55.9102 75.3125 55.7227L78.5586 55.5234V54.668C78.5586 53.4141 77.7383 52.6523 76.2734 52.6523C74.8906 52.6523 74.0352 53.2969 73.8477 54.2109L73.8242 54.3164H71.1172L71.1289 54.1758C71.3164 51.9727 73.2148 50.3203 76.3672 50.3203C79.4844 50.3203 81.4766 51.9609 81.4766 54.457V63H78.5586V61.0898H78.5C77.7734 62.3906 76.3906 63.2109 74.7617 63.2109ZM73.5078 59.3438C73.5078 60.3633 74.3398 60.9844 75.6289 60.9844C77.3047 60.9844 78.5586 59.8711 78.5586 58.3945V57.457L75.7227 57.6328C74.293 57.7266 73.5078 58.3477 73.5078 59.332V59.3438ZM88.2148 57.3516C87.9805 60.8789 87.1133 63.1172 84.1953 63.1172C83.6562 63.1172 83.2695 63.0352 83.082 62.9766V60.4805C83.1992 60.5156 83.4336 60.5625 83.75 60.5625C85.0039 60.5625 85.4258 59.3906 85.5664 57.1406L85.9766 50.5781H95.3516V63H92.4219V52.8398H88.5195L88.2148 57.3516ZM103.461 63.2461C99.8047 63.2461 97.4492 60.8086 97.4492 56.7891V56.7656C97.4492 52.7812 99.8398 50.3203 103.461 50.3203C107.07 50.3203 109.473 52.7578 109.473 56.7656V56.7891C109.473 60.8203 107.105 63.2461 103.461 63.2461ZM103.473 60.8906C105.324 60.8906 106.508 59.3906 106.508 56.7891V56.7656C106.508 54.1758 105.301 52.6875 103.461 52.6875C101.633 52.6875 100.426 54.1875 100.426 56.7656V56.7891C100.426 59.4023 101.621 60.8906 103.473 60.8906ZM114.359 63H111.57V50.5781H115.309L118.953 59.25H119.047L122.703 50.5781H126.371V63H123.582V54.5039H123.488L119.996 62.4258H117.934L114.441 54.5039H114.359V63ZM137.129 63V57.7383H131.902V63H128.984V50.5781H131.902V55.4766H137.129V50.5781H140.047V63H137.129ZM142.648 63V50.5781H145.531V58.8633H145.648L151.004 50.5781H153.863V63H150.98V54.6562H150.863L145.508 63H142.648ZM159.828 57.5977H159.395V63H156.477V50.5781H159.395V55.5938H159.828L164.035 50.5781H167.398L162.395 56.3789L167.645 63H164.094L159.828 57.5977ZM174.359 63.2461C170.703 63.2461 168.348 60.8086 168.348 56.7891V56.7656C168.348 52.7812 170.738 50.3203 174.359 50.3203C177.969 50.3203 180.371 52.7578 180.371 56.7656V56.7891C180.371 60.8203 178.004 63.2461 174.359 63.2461ZM174.371 60.8906C176.223 60.8906 177.406 59.3906 177.406 56.7891V56.7656C177.406 54.1758 176.199 52.6875 174.359 52.6875C172.531 52.6875 171.324 54.1875 171.324 56.7656V56.7891C171.324 59.4023 172.52 60.8906 174.371 60.8906ZM182.469 63V50.5781H188.363C190.871 50.5781 192.371 51.7734 192.371 53.7422V53.7656C192.371 55.0664 191.422 56.2383 190.191 56.4492V56.543C191.82 56.7422 192.922 57.8672 192.922 59.4023V59.4258C192.922 61.6055 191.211 63 188.457 63H182.469ZM185.352 55.6406H187.449C188.809 55.6406 189.5 55.1367 189.5 54.1172V54.0938C189.5 53.1094 188.844 52.582 187.672 52.582H185.352V55.6406ZM185.352 60.9844H187.777C189.16 60.9844 189.922 60.4102 189.922 59.2734V59.25C189.922 58.125 189.113 57.5977 187.543 57.5977H185.352V60.9844Z" fill="url(#paint16_linear_125_17308)"/>
<defs>
<linearGradient id="paint0_linear_125_17308" x1="15.6666" y1="10.1103" x2="35.6" y2="42.6703" gradientUnits="userSpaceOnUse">
<stop stop-color="#FFD25E"/>
<stop offset="1" stop-color="#B59646"/>
</linearGradient>
<linearGradient id="paint1_linear_125_17308" x1="15.6657" y1="10.1098" x2="35.599" y2="42.6698" gradientUnits="userSpaceOnUse">
<stop stop-color="#FFD25E"/>
<stop offset="1" stop-color="#B59646"/>
</linearGradient>
<linearGradient id="paint2_linear_125_17308" x1="15.6625" y1="10.11" x2="35.5958" y2="42.67" gradientUnits="userSpaceOnUse">
<stop stop-color="#FFD25E"/>
<stop offset="1" stop-color="#B59646"/>
</linearGradient>
<linearGradient id="paint3_linear_125_17308" x1="15.665" y1="10.1102" x2="35.5984" y2="42.6702" gradientUnits="userSpaceOnUse">
<stop stop-color="#FFD25E"/>
<stop offset="1" stop-color="#B59646"/>
</linearGradient>
<linearGradient id="paint4_linear_125_17308" x1="15.6655" y1="10.11" x2="35.5988" y2="42.67" gradientUnits="userSpaceOnUse">
<stop stop-color="#FFD25E"/>
<stop offset="1" stop-color="#B59646"/>
</linearGradient>
<linearGradient id="paint5_linear_125_17308" x1="15.6671" y1="10.11" x2="35.6004" y2="42.67" gradientUnits="userSpaceOnUse">
<stop stop-color="#FFD25E"/>
<stop offset="1" stop-color="#B59646"/>
</linearGradient>
<linearGradient id="paint6_linear_125_17308" x1="15.6683" y1="10.1098" x2="35.6016" y2="42.6698" gradientUnits="userSpaceOnUse">
<stop stop-color="#FFD25E"/>
<stop offset="1" stop-color="#B59646"/>
</linearGradient>
<linearGradient id="paint7_linear_125_17308" x1="15.6664" y1="10.1098" x2="35.5997" y2="42.6698" gradientUnits="userSpaceOnUse">
<stop stop-color="#FFD25E"/>
<stop offset="1" stop-color="#B59646"/>
</linearGradient>
<linearGradient id="paint8_linear_125_17308" x1="234.333" y1="10.1103" x2="214.399" y2="42.6703" gradientUnits="userSpaceOnUse">
<stop stop-color="#FFD25E"/>
<stop offset="1" stop-color="#B59646"/>
</linearGradient>
<linearGradient id="paint9_linear_125_17308" x1="234.336" y1="10.1098" x2="214.402" y2="42.6698" gradientUnits="userSpaceOnUse">
<stop stop-color="#FFD25E"/>
<stop offset="1" stop-color="#B59646"/>
</linearGradient>
<linearGradient id="paint10_linear_125_17308" x1="234.329" y1="10.11" x2="214.396" y2="42.67" gradientUnits="userSpaceOnUse">
<stop stop-color="#FFD25E"/>
<stop offset="1" stop-color="#B59646"/>
</linearGradient>
<linearGradient id="paint11_linear_125_17308" x1="234.333" y1="10.1102" x2="214.4" y2="42.6702" gradientUnits="userSpaceOnUse">
<stop stop-color="#FFD25E"/>
<stop offset="1" stop-color="#B59646"/>
</linearGradient>
<linearGradient id="paint12_linear_125_17308" x1="234.332" y1="10.11" x2="214.399" y2="42.67" gradientUnits="userSpaceOnUse">
<stop stop-color="#FFD25E"/>
<stop offset="1" stop-color="#B59646"/>
</linearGradient>
<linearGradient id="paint13_linear_125_17308" x1="234.33" y1="10.11" x2="214.397" y2="42.67" gradientUnits="userSpaceOnUse">
<stop stop-color="#FFD25E"/>
<stop offset="1" stop-color="#B59646"/>
</linearGradient>
<linearGradient id="paint14_linear_125_17308" x1="234.335" y1="10.1098" x2="214.402" y2="42.6698" gradientUnits="userSpaceOnUse">
<stop stop-color="#FFD25E"/>
<stop offset="1" stop-color="#B59646"/>
</linearGradient>
<linearGradient id="paint15_linear_125_17308" x1="234.331" y1="10.1098" x2="214.398" y2="42.6698" gradientUnits="userSpaceOnUse">
<stop stop-color="#FFD25E"/>
<stop offset="1" stop-color="#B59646"/>
</linearGradient>
<linearGradient id="paint16_linear_125_17308" x1="125" y1="11" x2="125" y2="69" gradientUnits="userSpaceOnUse">
<stop stop-color="#FDD05D"/>
<stop offset="1" stop-color="#B59646"/>
</linearGradient>
<clipPath id="clip0_125_17308">
<rect width="33.3333" height="80" fill="white" transform="translate(3.33301)"/>
</clipPath>
<clipPath id="clip1_125_17308">
<rect width="33.3333" height="80" fill="white" transform="translate(213.333)"/>
</clipPath>
</defs>
</svg>
