<svg width="32" height="32" viewBox="0 0 32 32" fill="none" xmlns="http://www.w3.org/2000/svg">
<g clip-path="url(#clip0_125_17769)">
<path d="M16.7906 30.5935C16.8843 30.5668 16.9648 30.5265 17.0585 30.473L27.5451 24.4998C28.7906 23.79 29.4602 23.0668 29.4602 21.1248V10.6918C29.4602 10.29 29.4334 9.96854 29.3531 9.67389L16.7906 16.8525V30.5935ZM14.9557 30.5935V16.8525L2.39328 9.67389C2.31292 9.96854 2.28613 10.29 2.28613 10.6918V21.1248C2.28613 23.0668 2.96917 23.79 4.20131 24.4998L14.7013 30.473C14.7817 30.5265 14.862 30.5668 14.9557 30.5935ZM15.8798 15.2453L21.5986 12.0043L8.9156 4.75872L4.00042 7.55782C3.70578 7.71854 3.4647 7.87925 3.25042 8.08015L15.8798 15.2453ZM23.4602 10.9462L28.496 8.08015C28.295 7.87925 28.054 7.71854 27.7594 7.55782L18.304 2.1739C17.487 1.70515 16.67 1.45068 15.8798 1.45068C15.0763 1.45068 14.2594 1.70515 13.4424 2.1739L10.7236 3.71408L23.4602 10.9462Z" fill="black"/>
</g>
<defs>
<clipPath id="clip0_125_17769">
<rect width="27.1741" height="29.4509" fill="white" transform="translate(2.28613 1.14307)"/>
</clipPath>
</defs>
</svg>
