<svg width="20" height="16" viewBox="0 0 20 16" fill="none" xmlns="http://www.w3.org/2000/svg">
<g clip-path="url(#clip0_196_5307)">
<path d="M5.70131 8.0401C6.94682 8.0401 8.03168 6.91513 8.03168 5.46198C8.03168 4.01555 6.94013 2.95752 5.70131 2.95752C4.45578 2.95752 3.36426 4.04234 3.36426 5.47538C3.36426 6.91513 4.44908 8.0401 5.70131 8.0401ZM1.9647 14.087H9.42453C10.275 14.087 10.6031 13.7522 10.6031 13.1428C10.6031 11.2946 8.7147 9.06467 5.69461 9.06467C2.67453 9.06467 0.786133 11.2946 0.786133 13.1428C0.786133 13.7522 1.12095 14.087 1.9647 14.087Z" fill="black"/>
<path d="M9.19646 14.998H17.6138C19.375 14.998 19.9509 14.1475 19.9509 13.1967C19.9509 10.9466 17.3727 8.17432 13.4018 8.17432C9.43749 8.17432 6.85938 10.9466 6.85938 13.1967C6.85938 14.1475 7.43526 14.998 9.19646 14.998Z" fill="white"/>
<path d="M13.4089 7.88617C14.8486 7.88617 16.0874 6.60045 16.0874 4.92634C16.0874 3.27232 14.8419 2.04688 13.4089 2.04688C11.9758 2.04688 10.7303 3.29911 10.7303 4.93973C10.7303 6.60045 11.9691 7.88617 13.4089 7.88617ZM9.19685 14.087H17.6142C18.6656 14.087 19.0406 13.7857 19.0406 13.1965C19.0406 11.4687 16.8777 9.0848 13.4022 9.0848C9.93342 9.0848 7.77051 11.4687 7.77051 13.1965C7.77051 13.7857 8.14548 14.087 9.19685 14.087Z" fill="black"/>
</g>
<defs>
<clipPath id="clip0_196_5307">
<rect width="19.1652" height="13.8549" fill="white" transform="translate(0.786133 1.14307)"/>
</clipPath>
</defs>
</svg>
