<svg width="46" height="46" viewBox="0 0 46 46" fill="none" xmlns="http://www.w3.org/2000/svg">
<g clip-path="url(#clip0_2005_3527)">
<path d="M1.875 14.9531C3.11718 14.9531 3.77344 14.25 3.77344 13.0312V7.5C3.77344 5.0625 5.0625 3.82032 7.40624 3.82032H13.0781C14.3203 3.82032 15 3.14062 15 1.92188C15 0.703124 14.3203 0.046875 13.0781 0.046875H7.35938C2.46094 0.046875 0 2.46094 0 7.28906V13.0312C0 14.25 0.679688 14.9531 1.875 14.9531ZM43.9922 14.9531C45.2344 14.9531 45.8906 14.25 45.8906 13.0312V7.28906C45.8906 2.46094 43.4296 0.046875 38.5312 0.046875H32.789C31.5704 0.046875 30.8906 0.703124 30.8906 1.92188C30.8906 3.14062 31.5704 3.82032 32.789 3.82032H38.461C40.7812 3.82032 42.1172 5.0625 42.1172 7.5V13.0312C42.1172 14.25 42.7968 14.9531 43.9922 14.9531ZM7.35938 45.914H13.0781C14.3203 45.914 15 45.2344 15 44.039C15 42.8204 14.3203 42.1406 13.0781 42.1406H7.40624C5.0625 42.1406 3.77344 40.8984 3.77344 38.461V32.9296C3.77344 31.6876 3.09376 31.0078 1.875 31.0078C0.65625 31.0078 0 31.6876 0 32.9296V38.6484C0 43.5 2.46094 45.914 7.35938 45.914ZM32.789 45.914H38.5312C43.4296 45.914 45.8906 43.4766 45.8906 38.6484V32.9296C45.8906 31.6876 45.211 31.0078 43.9922 31.0078C42.7734 31.0078 42.1172 31.6876 42.1172 32.9296V38.461C42.1172 40.8984 40.7812 42.1406 38.461 42.1406H32.789C31.5704 42.1406 30.8906 42.8204 30.8906 44.039C30.8906 45.2344 31.5704 45.914 32.789 45.914Z" fill="#253168"/>
<path d="M11.1562 36.0468H34.7344C35.7422 36.0468 36.2578 35.3672 36.2578 34.4062C36.2578 31.5938 31.9922 24.2812 22.9454 24.2812C13.8984 24.2812 9.63281 31.5938 9.63281 34.4062C9.63281 35.3672 10.1484 36.0468 11.1562 36.0468ZM22.9454 22.1718C26.625 22.1954 29.5546 19.0781 29.5546 14.9297C29.5546 11.0625 26.625 7.85156 22.9454 7.85156C19.2656 7.85156 16.3359 11.0625 16.3359 14.9297C16.3359 19.0781 19.2656 22.1484 22.9454 22.1718Z" fill="#253168"/>
</g>
<defs>
<clipPath id="clip0_2005_3527">
<rect width="45.8906" height="45.914" fill="white"/>
</clipPath>
</defs>
</svg>
