<svg width="58" height="55" viewBox="0 0 58 55" fill="none" xmlns="http://www.w3.org/2000/svg">
<path d="M34 51.2578C47.0782 51.2578 57.9062 40.4062 57.9062 27.3516C57.9062 14.2734 47.0546 3.44531 33.9766 3.44531C20.9218 3.44531 10.0938 14.2734 10.0938 27.3516C10.0938 40.4062 20.9454 51.2578 34 51.2578ZM34 47.2734C22.9376 47.2734 14.1016 38.414 14.1016 27.3516C14.1016 16.2891 22.914 7.42967 33.9766 7.42967C45.039 7.42967 53.9218 16.2891 53.9218 27.3516C53.9218 38.414 45.0624 47.2734 34 47.2734ZM50.0312 42.7968L49.961 42.539C48.8124 39.0938 42.625 35.3204 34 35.3204C25.3984 35.3204 19.211 39.0938 18.039 42.5156L17.9688 42.7968C22.1876 46.9688 29.4296 49.4062 34 49.4062C38.5938 49.4062 45.7656 46.9922 50.0312 42.7968ZM34 31.336C38.5234 31.3828 42.039 27.539 42.039 22.5C42.039 17.7656 38.5 13.8516 34 13.8516C29.5 13.8516 25.9376 17.7656 25.961 22.5C25.9844 27.539 29.5 31.289 34 31.336Z" fill="#253168"/>
<path d="M13.1172 54.7266C21.3438 54.7266 28.2344 47.8594 28.2344 39.6094C28.2344 31.3124 21.414 24.4922 13.1172 24.4922C4.84376 24.4922 -2 31.3124 -2 39.6094C-2 47.9296 4.82032 54.7266 13.1172 54.7266Z" fill="white"/>
<path d="M13.1172 51.5155C19.5624 51.5155 25.0234 46.1249 25.0234 39.6093C25.0234 33.0703 19.6562 27.7031 13.1172 27.7031C6.60156 27.7031 1.21094 33.0937 1.21094 39.6093C1.21094 46.1717 6.60156 51.5155 13.1172 51.5155Z" fill="#253168"/>
<path d="M11.6875 46.0313C11.3125 46.0313 10.8203 45.8673 10.5156 45.5391L6.55469 41.1797C6.27345 40.8751 6.15625 40.4533 6.15625 40.1251C6.15625 39.2813 6.81251 38.6485 7.63283 38.6485C8.12501 38.6485 8.50001 38.8829 8.75783 39.1407L11.6406 42.2579L17.3359 34.3361C17.6172 33.9377 18.039 33.6797 18.5782 33.6797C19.375 33.6797 20.0546 34.3125 20.0546 35.1329C20.0546 35.3907 19.9376 35.7189 19.7266 36.0235L12.9297 45.4689C12.6719 45.8205 12.2031 46.0313 11.6875 46.0313Z" fill="white"/>
</svg>
