<svg width="39" height="48" viewBox="0 0 39 48" fill="none" xmlns="http://www.w3.org/2000/svg">
<path d="M19.1719 47.3204C19.5469 47.3204 20.1328 47.1796 20.7188 46.875C34.0546 39.8906 38.3438 36.3984 38.3438 27.9844V10.3125C38.3438 7.89844 37.3124 7.125 35.3438 6.30468C32.6016 5.17968 23.836 1.99219 21.1172 1.05469C20.4844 0.84375 19.8281 0.726562 19.1719 0.726562C18.5156 0.726562 17.8594 0.867188 17.25 1.05469C14.5078 1.94531 5.74218 5.20312 3 6.30468C1.05469 7.10156 0 7.89844 0 10.3125V27.9844C0 36.3984 4.52344 39.4922 17.625 46.875C18.2344 47.2032 18.7969 47.3204 19.1719 47.3204Z" fill="#253168"/>
<path d="M16.5469 34.5938C15.75 34.5938 15.0938 34.289 14.4844 33.4688L8.60156 26.25C8.25 25.7812 8.03906 25.2422 8.03906 24.7266C8.03906 23.6484 8.85938 22.7812 9.9375 22.7812C10.5938 22.7812 11.1094 23.0156 11.6953 23.789L16.4531 29.9296L26.461 13.8516C26.9062 13.125 27.5156 12.7734 28.1484 12.7734C29.1562 12.7734 30.1172 13.4766 30.1172 14.5547C30.1172 15.0938 29.836 15.6328 29.5312 16.1016L18.5156 33.4688C18.0234 34.2188 17.3438 34.5938 16.5469 34.5938Z" fill="white"/>
</svg>
