<svg width="59" height="49" viewBox="0 0 59 49" fill="none" xmlns="http://www.w3.org/2000/svg">
<path d="M8.03124 37.5L8.73438 40.3124C9.625 43.9688 11.5703 45.8438 15.4375 45.8438H40.6796C44.5704 45.8438 46.4922 44.0156 47.4062 40.3124L48.1094 37.5H8.03124ZM7.25782 34.289H48.9062L53.3124 16.2422L51.3906 15.1406L40.586 23.0156C39.789 23.5782 39.25 23.3672 38.8046 22.7344L28.6328 7.35938L27.5078 7.3125L17.2422 22.8046C16.8438 23.414 16.375 23.6016 15.5781 23.039L4.98438 15.3047L2.73438 15.8906L7.25782 34.289ZM3.60156 20.9296C6.69532 20.9296 9.17968 18.4219 9.17968 15.3047C9.17968 12.2578 6.69532 9.72656 3.60156 9.72656C0.50782 9.72656 -2 12.2344 -2 15.3047C-2 18.4219 0.53124 20.9296 3.60156 20.9296ZM28.0704 11.1797C31.1406 11.1797 33.6484 8.67188 33.6484 5.57812C33.6484 2.53124 31.1406 0 28.0704 0C24.9532 0 22.4688 2.50782 22.4688 5.57812C22.4688 8.67188 24.9766 11.1797 28.0704 11.1797ZM52.5156 20.9296C55.586 20.9296 58.1172 18.4219 58.1172 15.3047C58.1172 12.2344 55.6094 9.72656 52.5156 9.72656C49.4454 9.72656 46.9376 12.2578 46.9376 15.3047C46.9376 18.4219 49.4454 20.9296 52.5156 20.9296Z" fill="#253168"/>
</svg>
