<svg width="54" height="54" viewBox="0 0 54 54" fill="none" xmlns="http://www.w3.org/2000/svg">
<path d="M12.419 46.9424H17.5049C17.9736 46.9424 18.3252 47.083 18.6768 47.4346L22.2862 51.0206C25.2392 53.997 27.9814 53.9736 30.9346 51.0206L34.544 47.4346C34.919 47.083 35.247 46.9424 35.7392 46.9424H40.8018C44.997 46.9424 46.9424 45.0206 46.9424 40.8018V35.7392C46.9424 35.247 47.083 34.919 47.4346 34.544L51.0206 30.9346C53.997 27.9814 53.9736 25.2392 51.0206 22.2862L47.4346 18.6768C47.083 18.3252 46.9424 17.9736 46.9424 17.5049V12.419C46.9424 8.24708 45.0206 6.27832 40.8018 6.27832H35.7392C35.247 6.27832 34.919 6.16114 34.544 5.80958L30.9346 2.22364C27.9814 -0.752921 25.2392 -0.729483 22.2862 2.22364L18.6768 5.80958C18.3252 6.16114 17.9736 6.27832 17.5049 6.27832H12.419C8.22364 6.27832 6.27832 8.2002 6.27832 12.419V17.5049C6.27832 17.9736 6.16114 18.3252 5.80958 18.6768L2.22364 22.2862C-0.752921 25.2392 -0.729483 27.9814 2.22364 30.9346L5.80958 34.544C6.16114 34.919 6.27832 35.247 6.27832 35.7392V40.8018C6.27832 44.997 8.22364 46.9424 12.419 46.9424Z" fill="#253168"/>
<path d="M23.997 38.0596C23.2002 38.0596 22.544 37.7548 21.9346 36.9346L16.0518 29.7158C15.7002 29.247 15.4893 28.708 15.4893 28.1924C15.4893 27.1142 16.3096 26.247 17.3877 26.247C18.044 26.247 18.5596 26.4814 19.1455 27.2548L23.9034 33.3956L33.9112 17.3174C34.3564 16.5908 34.9658 16.2393 35.5986 16.2393C36.6064 16.2393 37.5674 16.9424 37.5674 18.0205C37.5674 18.5596 37.2628 19.0986 36.9814 19.5674L25.9658 36.9346C25.4736 37.6846 24.794 38.0596 23.997 38.0596Z" fill="white"/>
</svg>
