<svg width="61" height="56" viewBox="0 0 61 56" fill="none" xmlns="http://www.w3.org/2000/svg">
<g clip-path="url(#clip0_103_8693)">
<path d="M10.0312 41.5L10.7344 44.3124C11.625 47.9688 13.5703 49.8438 17.4375 49.8438H42.6796C46.5704 49.8438 48.4922 48.0156 49.4062 44.3124L50.1094 41.5H10.0312ZM9.25782 38.289H50.9062L55.3124 20.2422L53.3906 19.1406L42.586 27.0156C41.789 27.5782 41.25 27.3672 40.8046 26.7344L30.6328 11.3594L29.5078 11.3125L19.2422 26.8046C18.8438 27.414 18.375 27.6016 17.5781 27.039L6.98438 19.3047L4.73438 19.8906L9.25782 38.289ZM5.60156 24.9296C8.69532 24.9296 11.1797 22.4219 11.1797 19.3047C11.1797 16.2578 8.69532 13.7266 5.60156 13.7266C2.50782 13.7266 0 16.2344 0 19.3047C0 22.4219 2.53124 24.9296 5.60156 24.9296ZM30.0704 15.1797C33.1406 15.1797 35.6484 12.6719 35.6484 9.57812C35.6484 6.53124 33.1406 4 30.0704 4C26.9532 4 24.4688 6.50782 24.4688 9.57812C24.4688 12.6719 26.9766 15.1797 30.0704 15.1797ZM54.5156 24.9296C57.586 24.9296 60.1172 22.4219 60.1172 19.3047C60.1172 16.2344 57.6094 13.7266 54.5156 13.7266C51.4454 13.7266 48.9376 16.2578 48.9376 19.3047C48.9376 22.4219 51.4454 24.9296 54.5156 24.9296Z" fill="#253168"/>
</g>
<defs>
<clipPath id="clip0_103_8693">
<rect width="60.1172" height="48.8204" fill="white" transform="translate(0 4)"/>
</clipPath>
</defs>
</svg>
