<svg width="94" height="37" viewBox="0 0 94 37" fill="none" xmlns="http://www.w3.org/2000/svg">
<path d="M88.2918 18.9997C86.0002 18.9997 84.7918 17.9163 84.0835 17.1247C83.4168 16.333 83.0835 15.6247 82.9585 15.1663L82.8335 14.7913L84.5418 13.9997L84.6668 14.4163C84.8752 15.0413 85.2918 15.6247 85.5002 15.9163C86.1252 16.708 87.2085 17.208 88.3335 17.208C90.3752 17.208 91.9585 15.708 91.9585 13.7497C91.9585 12.7913 91.5002 12.0413 90.5002 11.458C90.0418 11.208 89.0835 10.708 87.7085 10.0413C86.0835 9.24967 85.1252 8.74968 84.5002 7.66634C84.0835 6.99968 83.9168 6.33301 83.9168 5.54134C83.9168 3.29134 85.5002 0.958008 88.5835 0.958008C90.5002 0.958008 92.1252 1.91634 93.0418 3.58301L93.1668 3.87467L91.7085 5.08301L91.5002 4.62467C90.6668 3.04134 89.2918 2.79134 88.5835 2.79134C86.7085 2.79134 85.8752 4.16634 85.8752 5.49967C85.8752 6.95801 86.7918 7.45801 88.5418 8.33301C88.5418 8.33301 89.1668 8.62467 89.4168 8.74967C90.5418 9.29134 91.2502 9.62467 91.9585 10.1247C92.7918 10.708 93.9168 11.708 93.9168 13.708C93.9168 16.708 91.4585 18.9997 88.2918 18.9997Z" fill="black"/>
<path d="M14.8335 18.8747L8.62516 4.66634L2.37516 18.8747H0.333496L8.62516 0.0830078L16.9168 18.8747H14.8335Z" fill="black"/>
<path d="M73.7502 18.8747L67.5418 4.66634L61.2918 18.8747H59.2085L67.5418 0.0830078L75.8335 18.8747H73.7502Z" fill="black"/>
<path d="M26.375 18.7917V3.08333H22V1.25H32.625V3.08333H28.2917V18.7917H26.375Z" fill="black"/>
<path d="M42.375 18.7077V1.16602H44.3333V16.916H52.25L51.5 18.7077H42.375Z" fill="black"/>
<path d="M52.5417 35.708L52.7917 35.583C53 35.4997 53.2917 35.0413 53.2917 34.583V31.0413H52.6667V30.083H54.4167V34.5413C54.4167 35.583 53.6667 36.1247 53.1667 36.2497H53.0417L52.5417 35.708ZM59.8333 35.708L60.0833 35.6247C60.2917 35.4997 60.5833 35.083 60.5833 34.6247V31.083H59.9583V30.1247H61.6667V34.583C61.6667 35.583 60.9583 36.1247 60.4583 36.2497L60.3333 36.2913L59.8333 35.708ZM46.875 35.2913L46.5833 34.6663H43.8333L43.5417 35.2913H42.4167L44.7917 30.083H45.6667L48.0417 35.2913H46.875ZM46.1667 33.708L45.25 31.6247L44.2917 33.708H46.1667ZM36.125 35.2913V33.208H33.375V35.2913H32.25V30.083H33.375V32.1663H36.125V30.083H37.25V35.2913H36.125Z" fill="black"/>
<path d="M10.1668 18.916L8.62516 22.3743L7.0835 18.916L8.62516 15.416L10.1668 18.916Z" fill="#253168"/>
</svg>
