<svg width="29" height="27" viewBox="0 0 29 27" fill="none" xmlns="http://www.w3.org/2000/svg">
<g clip-path="url(#clip0_2028_2307)">
<path d="M0.285156 24.6964C0.285156 25.674 0.847657 26.2365 1.81194 26.2365C2.16015 26.2365 2.49497 26.1294 2.93694 25.8882L8.56194 22.8481V0.656146C8.32087 0.776682 8.05302 0.91061 7.81194 1.04454L1.46373 4.68739C0.660156 5.12936 0.285156 5.77221 0.285156 6.66954V24.6964ZM10.3968 22.5936L17.1468 26.3838C17.3477 26.491 17.562 26.5847 17.7629 26.6383V4.78114L11.1468 0.736502C10.9191 0.589181 10.6512 0.482038 10.3968 0.428467V22.5936ZM19.5842 26.5981C19.7182 26.558 19.8655 26.5044 19.9861 26.424L26.9638 22.4597C27.7673 22.0177 28.1423 21.3749 28.1423 20.4776V2.43739C28.1423 1.44632 27.5798 0.897216 26.6156 0.897216C26.2673 0.897216 25.9325 1.00436 25.4905 1.24543L19.5842 4.52668V26.5981Z" fill="black"/>
</g>
<defs>
<clipPath id="clip0_2028_2307">
<rect width="27.8571" height="26.2634" fill="white" transform="translate(0.285156 0.428467)"/>
</clipPath>
</defs>
</svg>
