<svg width="16" height="16" viewBox="0 0 16 16" fill="none" xmlns="http://www.w3.org/2000/svg">
<path d="M8.56001 7.13533L8.67635 7.27783H13.0054L13.1217 7.13533C13.3111 6.90283 13.4112 6.62033 13.4112 6.33283C13.4112 5.83783 13.1163 5.38283 12.6428 5.15033C11.988 4.82783 11.4523 4.34033 11.0871 3.75033C11.566 3.64533 11.9231 3.25033 11.9231 2.77783C11.9231 2.64033 11.8014 2.52783 11.6525 2.52783C11.5037 2.52783 11.382 2.64033 11.382 2.77783C11.382 3.05283 11.1385 3.27783 10.8409 3.27783C10.5432 3.27783 10.2997 3.05283 10.2997 2.77783C10.2997 2.50283 10.5432 2.27783 10.8409 2.27783C10.9897 2.27783 11.1114 2.16533 11.1114 2.02783C11.1114 1.89033 10.9897 1.77783 10.8409 1.77783C10.2429 1.77783 9.7586 2.22533 9.7586 2.77783C9.7586 3.25033 10.1157 3.64533 10.5919 3.74783C10.2267 4.33783 9.69096 4.82533 9.0362 5.14783C8.56542 5.38283 8.27051 5.83783 8.27051 6.33033C8.27051 6.62033 8.37332 6.90283 8.56001 7.13533Z" fill="#170500"/>
<path d="M13.0058 10.5503V7.77783H8.67676V9.92533C8.97167 10.1203 9.28552 10.2903 9.62373 10.4228V10.0353C9.62373 9.32533 10.0377 8.66283 10.706 8.31033C10.7899 8.26533 10.8927 8.26533 10.9738 8.31033C11.6421 8.66283 12.0561 9.32283 12.0561 10.0353V10.7453C12.3808 10.7128 12.6946 10.6478 13.0058 10.5503Z" fill="#170500"/>
<path d="M10.8405 8.82568C10.4184 9.10318 10.1641 9.55318 10.1641 10.0382V10.6007C10.5943 10.7157 11.0461 10.7807 11.5169 10.7807V10.0382C11.5169 9.55318 11.2625 9.10068 10.8405 8.82568Z" fill="#170500"/>
<path d="M11.5176 11.2778C8.52788 11.2778 6.10635 9.04033 6.10635 6.27783C6.10635 4.63533 6.97485 3.19033 8.29791 2.28033C8.28979 2.27783 8.27897 2.27783 8.27085 2.27783C4.68589 2.27783 1.77734 4.96533 1.77734 8.27783C1.77734 11.5903 4.68589 14.2778 8.27085 14.2778C10.9819 14.2778 13.3033 12.7403 14.2773 10.5578C13.4657 11.0053 12.5295 11.2778 11.5176 11.2778Z" fill="#170500"/>
</svg>
