<svg width="16" height="16" viewBox="0 0 16 16" fill="none" xmlns="http://www.w3.org/2000/svg">
<path d="M7.74379 1.24824C5.99509 1.98573 1.83245 3.81508 1.76659 3.87573C1.62169 4.00344 1.59863 4.13114 1.61839 4.61322C1.62498 4.85266 1.64474 5.06976 1.65462 5.0953C1.66779 5.12084 3.09705 5.83279 4.83588 6.67563L7.99737 8.20807L11.1589 6.67563C14.8012 4.91013 14.3862 5.18469 14.3862 4.55575C14.3862 4.12795 14.3467 3.9747 14.2051 3.85339C14.1425 3.8023 12.8977 3.2468 11.1226 2.48377C7.94139 1.11096 8.00725 1.1365 7.74379 1.24824Z" fill="black"/>
<path d="M11.1788 7.51172C8.34336 8.88453 8.04038 9.025 7.93829 9.00585C7.87572 8.99308 6.44317 8.31625 4.76033 7.49895C1.28268 5.81646 1.60871 5.93139 1.60871 6.37516C1.60871 6.56352 1.62189 6.63376 1.66799 6.68484C1.74374 6.77104 7.8856 9.7561 7.9844 9.7561C8.02721 9.7561 9.46306 9.07608 11.1788 8.24601C13.8299 6.96259 14.3008 6.72634 14.3436 6.64653C14.3996 6.54437 14.393 6.07825 14.337 6.02397C14.3173 6.00482 13.1778 6.54117 11.1788 7.51172Z" fill="black"/>
<path d="M1.72037 7.70674C1.61498 7.77378 1.6084 7.86637 1.6084 9.7883C1.6084 11.1005 1.62157 11.7517 1.64462 11.8507C1.66768 11.9305 1.73354 12.0455 1.8027 12.1189C1.91138 12.2338 2.20447 12.3679 4.88516 13.5236C7.35837 14.5899 7.87211 14.8007 7.99726 14.8007C8.11581 14.8007 8.38586 14.6985 9.41334 14.2579C10.128 13.9514 10.7076 13.6864 10.7372 13.6481C10.7899 13.5875 10.7965 13.4853 10.7965 12.5435C10.7965 11.8763 10.8097 11.4868 10.8327 11.4453C10.8689 11.375 12.1467 10.7461 12.2488 10.7461C12.2817 10.7461 12.341 10.7748 12.3772 10.8099C12.4398 10.8706 12.4431 10.9153 12.4431 11.7486C12.4431 12.2466 12.4563 12.6616 12.476 12.7095C12.5452 12.8819 12.6242 12.8723 13.2302 12.6169C13.9909 12.2913 14.0996 12.2338 14.2149 12.0997C14.2709 12.0359 14.3301 11.9209 14.3499 11.8443C14.396 11.6687 14.3993 7.91426 14.3532 7.79613C14.2774 7.60138 14.3565 7.56627 11.1357 9.12744C8.67237 10.3215 8.10593 10.5865 7.99726 10.5865C7.88858 10.5865 7.32214 10.3247 4.86869 9.13382C3.22208 8.33568 1.84551 7.6812 1.81587 7.6812C1.78294 7.6812 1.74013 7.69397 1.72037 7.70674Z" fill="black"/>
</svg>
