<svg width="250" height="43" viewBox="0 0 250 43" fill="none" xmlns="http://www.w3.org/2000/svg">
<g clip-path="url(#clip0_103_8923)">
<path d="M0 0.799316V42.2006H41.4013V0.799316H0ZM27.2069 30.0672L20.6954 15.8342L14.205 30.0672H12.1893L20.6848 11.5506L29.212 30.0672H27.2069Z" fill="#25282D"/>
<path d="M53.344 21.4998H54.6736L57.2804 15.734L57.7724 14.6516L61.3005 6.81474L64.8496 14.6516L65.3312 15.734L67.938 21.4998H69.2676L61.6565 4.71242L61.2901 3.98389L53.344 21.4998Z" fill="#25282D"/>
<path d="M79.9669 4.78027H74.0447V21.5H80.1922C86.8761 21.5 89.1721 17.0094 89.1721 13.1349C89.1721 9.26046 87.1444 4.78027 79.9669 4.78027ZM80.1171 20.4139H75.3643V5.85593H80.042C84.6231 5.85593 87.7666 8.84272 87.7666 13.1349C87.7666 17.8449 84.1725 20.4139 80.1171 20.4139Z" fill="#25282D"/>
<path d="M99.8605 4.78027H93.949V21.5H100.086C106.77 21.5 109.076 17.0094 109.076 13.1349C109.076 9.26046 107.049 4.78027 99.8605 4.78027ZM100.021 20.4139H95.2579V5.85593H99.9463C104.517 5.85593 107.66 8.84272 107.66 13.1349C107.66 17.8449 104.077 20.4139 100.021 20.4139Z" fill="#25282D"/>
<path d="M122.795 15.718C122.004 14.5387 121.341 13.5785 120.549 13.161C122.699 12.3783 123.758 11.0319 123.758 9.10111C123.758 6.86763 122.303 4.78027 118.175 4.78027H113.854V21.5H115.169V13.4846H117.437C119.458 13.4846 120.1 13.7559 122.121 16.9183L125.063 21.5H126.592L122.795 15.718ZM117.961 12.3991H115.169V5.8657H117.907C120.988 5.8657 122.346 7.23292 122.346 9.12198C122.346 11.1363 120.924 12.3991 117.961 12.3991Z" fill="#25282D"/>
<path d="M139.931 5.8657H131.904V12.4096H139.735V13.4846H131.904V20.4146H140.127V21.5H130.573V4.78027H139.931V5.8657Z" fill="#25282D"/>
<path d="M154.553 6.51053C152.81 5.5084 151.902 5.20989 150.736 5.20989C148.682 5.20989 147.135 6.60648 147.135 8.46148C147.135 13.0137 155.255 10.8389 155.255 16.8197C155.255 19.4529 153.078 21.4998 150.302 21.4998C148.899 21.4998 147.424 20.9987 145.928 19.9966V18.4508C147.826 19.826 148.899 20.2738 150.23 20.2738C152.252 20.2738 153.831 18.7919 153.831 16.873C153.831 12.0222 145.701 14.1438 145.701 8.51479C145.701 5.98814 147.898 3.98389 150.602 3.98389C151.922 3.98389 153.222 4.3357 154.553 5.06064V6.51053Z" fill="#25282D"/>
<path d="M168.884 6.51053C167.13 5.5084 166.233 5.20989 165.056 5.20989C163.014 5.20989 161.456 6.60648 161.456 8.46148C161.456 13.0137 169.586 10.8389 169.586 16.8197C169.586 19.4529 167.409 21.4998 164.633 21.4998C163.23 21.4998 161.755 20.9987 160.259 19.9966V18.4508C162.157 19.826 163.23 20.2738 164.561 20.2738C166.583 20.2738 168.162 18.7919 168.162 16.873C168.162 12.0222 160.032 14.1438 160.032 8.51479C160.032 5.98814 162.229 3.98389 164.933 3.98389C166.264 3.98389 167.553 4.3357 168.884 5.06064V6.51053Z" fill="#25282D"/>
<path d="M82.3343 34.6043C82.0185 34.2387 81.572 33.9848 80.9839 33.8426C81.768 33.4771 82.1492 32.949 82.1492 32.2584C82.1492 31.7202 81.8987 31.2429 81.3978 30.857C80.8968 30.4609 80.1999 30.2578 79.3178 30.2578H75.637V38.2196H79.786C80.777 38.2196 81.5284 38.0063 82.0403 37.5697C82.5412 37.1431 82.8026 36.5744 82.8026 35.8839C82.8026 35.3964 82.6501 34.9699 82.3343 34.6043ZM77.7605 31.7202H78.8713C79.2089 31.7202 79.4811 31.8014 79.6771 31.9639C79.8623 32.1162 79.9603 32.3193 79.9603 32.5631C79.9603 32.8068 79.8623 33.0099 79.6771 33.1825C79.4811 33.345 79.2089 33.4263 78.8713 33.4263H77.7605V31.7202ZM80.1781 36.544C79.9276 36.6861 79.5247 36.7572 78.9584 36.7572H77.7605V34.8785H79.2524C79.6445 34.8785 79.9603 34.9597 80.1999 35.1222C80.4394 35.2847 80.5483 35.5081 80.5483 35.7823C80.5483 36.1378 80.4286 36.4018 80.1781 36.544Z" fill="#25282D"/>
<path d="M107.484 36.7674V38.2196H101.115V30.2578H103.202V36.7674H107.484Z" fill="#25282D"/>
<path d="M67.9136 30.2578H65.4903L62.1018 38.2196H64.3215L64.9434 36.6455H68.7071L69.4041 38.2196H71.6559L67.9136 30.2578ZM65.501 35.2542L66.7341 32.167L68.0959 35.2542H65.501Z" fill="#25282D"/>
<path d="M92.606 30.2578H90.1826L86.7834 38.2196H89.0031L89.6357 36.6455H93.3995L94.0858 38.2196H96.3376L92.606 30.2578ZM90.1826 35.2542L91.4265 32.167L92.7883 35.2542H90.1826Z" fill="#25282D"/>
<path d="M56.5287 30.2687V38.0931C56.5287 40.3006 55.6498 41.4043 53.8921 41.4043C53.7315 41.4043 53.5424 41.3934 53.344 41.3715V39.6777C53.4479 39.6995 53.5425 39.7105 53.6275 39.7105C54.3174 39.7105 54.667 39.1859 54.667 38.1259V30.2578H56.5193L56.5287 30.2687Z" fill="#25282D"/>
<path d="M134.957 33.2066L137.575 30.2578H139.331V38.2196H137.305V33.2473L135.103 35.7487H134.802L132.599 33.2473V38.2196H130.573V30.2578H132.339L134.957 33.2066Z" fill="#25282D"/>
<path d="M163.745 35.9651C163.37 35.1628 162.984 34.6754 162.577 34.4926C163.505 34.0661 163.974 33.4161 163.974 32.5428C163.974 31.9131 163.724 31.3647 163.234 30.9281C162.744 30.4812 162.097 30.2578 161.304 30.2578H157.643V38.2196H159.688V34.9902H160.272C160.543 34.9902 160.793 35.0918 161.033 35.2949C161.263 35.5081 161.544 35.9753 161.878 36.7166C162.212 37.4579 162.441 37.9556 162.577 38.2196H164.809C164.475 37.5087 164.11 36.7572 163.745 35.9651ZM161.576 33.2841C161.377 33.4466 161.106 33.5278 160.762 33.5278H159.688V31.71H160.72C161.492 31.71 161.878 32.0147 161.878 32.6138C161.878 32.9084 161.784 33.1318 161.576 33.2841Z" fill="#25282D"/>
<path d="M125.279 31.5693C124.4 30.6914 123.245 30.2578 121.826 30.2578C120.407 30.2578 119.241 30.6914 118.362 31.5693C117.473 32.4473 117.038 33.4662 117.038 34.6368C117.038 35.8074 117.483 36.8588 118.362 37.7259C119.252 38.5822 120.407 39.0158 121.826 39.0158C123.245 39.0158 124.368 38.5822 125.258 37.7151C126.148 36.848 126.592 35.8183 126.592 34.6368C126.592 33.4553 126.158 32.4473 125.279 31.5693ZM123.722 36.5228C123.245 37.0105 122.61 37.249 121.826 37.249C121.042 37.249 120.396 37.0105 119.909 36.5228C119.422 36.0459 119.178 35.4172 119.178 34.6368C119.178 33.8564 119.422 33.2277 119.909 32.7508C120.396 32.2739 121.032 32.0354 121.826 32.0354C122.62 32.0354 123.245 32.2739 123.722 32.7508C124.209 33.2277 124.453 33.8564 124.453 34.6368C124.453 35.4172 124.209 36.0459 123.722 36.5228Z" fill="#25282D"/>
<path d="M149.931 30.2578H147.508L144.108 38.2196H146.328L146.961 36.6455H150.724L151.411 38.2196H153.663L149.931 30.2578ZM147.508 35.2542L148.741 32.167L150.103 35.2542H147.508Z" fill="#25282D"/>
<path d="M181.125 33.213L183.743 30.2578H185.509V38.2196H183.473V33.2536L181.281 35.7417H180.969L178.777 33.2536V38.2196H176.751V30.2578H178.507L181.125 33.213Z" fill="#25282D"/>
<path d="M195.313 30.2578H192.89L189.49 38.2196H191.71L192.343 36.6455H196.096L196.793 38.2196H199.045L195.313 30.2578ZM192.89 35.2542L194.123 32.167L195.485 35.2542H192.89Z" fill="#25282D"/>
<path d="M210.818 30.2578L208.111 34.0051L211.784 38.2196H209.193L205.892 34.4926V38.2196H203.822V30.2578H205.892V33.8426L208.546 30.2578H210.818Z" fill="#25282D"/>
<path d="M222.77 30.2578L220.048 34.0051L223.726 38.2196H221.143L217.837 34.4926V38.2196H215.764V30.2578H217.837V33.8426L220.484 30.2578H222.77Z" fill="#25282D"/>
<path d="M233.53 30.2578H231.095L227.707 38.2196H229.927L230.549 36.6455H234.312L235.009 38.2196H237.261L233.53 30.2578ZM231.106 35.2542L232.339 32.167L233.701 35.2542H231.106Z" fill="#25282D"/>
<path d="M250 30.2578V38.2196H248.01V35.0004H244.029V38.2196H242.038V30.2578H244.029V33.4567H248.01V30.2578H250Z" fill="#25282D"/>
</g>
<defs>
<clipPath id="clip0_103_8923">
<rect width="250" height="41.4013" fill="white" transform="translate(0 0.799316)"/>
</clipPath>
</defs>
</svg>
