<svg width="180" height="67" viewBox="0 0 180 67" fill="none" xmlns="http://www.w3.org/2000/svg">
<g clip-path="url(#clip0_103_8918)">
<path d="M139.805 20.982C139.553 21.7601 139.172 22.4394 138.658 23.02C138.141 23.6007 137.48 24.0505 136.677 24.3672C135.871 24.6839 134.914 24.8423 133.804 24.8423C132.959 24.8423 132.273 24.8032 131.745 24.7229C131.217 24.6426 130.875 24.5646 130.717 24.4865V17.4363C130.717 15.933 131.098 14.6777 131.864 13.6747C132.631 12.6718 133.778 12.1715 135.309 12.1715C136.84 12.1715 138.036 12.7315 138.894 13.8537C139.75 14.976 140.181 16.4609 140.181 18.3084C140.181 19.2333 140.055 20.2017 139.805 20.982ZM143.092 10.2689C142.233 9.42667 141.242 8.78407 140.122 8.35031C139 7.91426 137.806 7.69623 136.537 7.69623C135.612 7.69623 134.8 7.80869 134.102 8.0336C133.402 8.25622 132.808 8.52244 132.321 8.82538C131.832 9.12832 131.456 9.4129 131.192 9.67683C130.928 9.94075 130.77 10.1129 130.717 10.1909V0.829559L125.172 2.43148V28.5648C125.33 28.59 125.64 28.6359 126.104 28.7025C126.565 28.769 127.139 28.8287 127.825 28.8815C128.511 28.9343 129.289 28.987 130.161 29.0398C131.034 29.0926 131.945 29.1179 132.895 29.1179C137.196 29.1179 140.439 28.1218 142.616 26.1298C144.794 24.1354 145.882 21.2529 145.882 17.714C145.882 16.1052 145.632 14.6731 145.13 13.4177C144.629 12.1646 143.95 11.1158 143.092 10.2689ZM114.7 19.3778C114.7 20.8834 114.317 22.1364 113.552 23.1394C112.786 24.1423 111.638 24.6449 110.105 24.6449C108.577 24.6449 107.381 24.0849 106.523 22.9626C105.667 21.8404 105.235 20.3555 105.235 18.508C105.235 17.5831 105.362 16.6124 105.614 15.8343C105.864 15.0563 106.245 14.377 106.762 13.7964C107.276 13.2134 107.937 12.7659 108.742 12.4492C109.548 12.1325 110.502 11.9741 111.613 11.9741C112.458 11.9741 113.144 12.0132 113.672 12.0935C114.2 12.1715 114.542 12.2518 114.7 12.3299V19.3778ZM117.553 8.5867C116.786 8.36178 115.85 8.15753 114.741 7.97163C113.63 7.78803 112.364 7.69623 110.938 7.69623C109.169 7.69623 107.585 7.96704 106.188 8.50637C104.788 9.04799 103.592 9.80764 102.603 10.7853C101.614 11.7607 100.854 12.9426 100.326 14.3288C99.7985 15.715 99.5345 17.4363 99.5345 19.1001C99.5345 20.7365 99.7847 22.1823 100.287 23.4354C100.788 24.6908 101.46 25.7396 102.307 26.5842C103.151 27.4287 104.141 28.0622 105.277 28.4844C106.41 28.9067 107.613 29.1179 108.88 29.1179C109.777 29.1179 110.576 29.0054 111.276 28.7805C111.976 28.5579 112.568 28.3008 113.059 28.0094C113.546 27.7202 113.929 27.4356 114.207 27.1579C114.482 26.8825 114.647 26.7035 114.7 26.6232V28.5648L120.245 28.5625V9.71585C120.112 9.63552 119.822 9.48405 119.373 9.25914C118.925 9.03652 118.317 8.81161 117.553 8.5867ZM99.468 8.47884C98.9103 8.18737 98.1047 7.93721 96.9481 7.75132C96.2871 7.64575 95.5871 7.59526 94.8481 7.59526C93.6341 7.59526 92.5118 7.70771 91.4836 7.93033C90.4532 8.15524 89.5489 8.4054 88.7709 8.68309C87.9906 8.96079 87.3641 9.2316 86.889 9.49553C86.4139 9.75945 86.1225 9.93158 86.0192 10.0096V28.5648H91.5617V13.0597C91.8003 12.9266 92.2226 12.7499 92.8308 12.5249C93.4367 12.3 94.295 12.1876 95.4035 12.1876C95.773 12.1876 96.1632 12.2151 96.5717 12.2679C96.9802 12.3207 97.3084 12.3643 97.7192 12.4836C97.7536 12.4951 97.7834 12.502 97.8156 12.5135C98.3893 11.1227 98.9218 9.82141 99.4129 8.61424C99.4312 8.56834 99.4496 8.52474 99.468 8.47884ZM174.455 19.3778C174.455 20.8834 174.072 22.1364 173.308 23.1394C172.541 24.1423 171.394 24.6449 169.861 24.6449C168.332 24.6449 167.136 24.0849 166.278 22.9627C165.422 21.8404 164.99 20.3555 164.99 18.508C164.99 17.5831 165.117 16.6124 165.367 15.8343C165.619 15.0563 166 14.377 166.517 13.7964C167.031 13.2134 167.692 12.7659 168.495 12.4492C169.301 12.1325 170.258 11.9741 171.368 11.9741C172.211 11.9741 172.899 12.0132 173.427 12.0935C173.955 12.1715 174.297 12.2518 174.455 12.3299V19.3778ZM179.128 9.25914C178.68 9.03652 178.072 8.81161 177.308 8.5867C176.541 8.36179 175.605 8.15753 174.494 7.97164C173.386 7.78803 172.119 7.69623 170.694 7.69623C168.924 7.69623 167.341 7.96705 165.941 8.50637C164.541 9.048 163.347 9.80765 162.358 10.7853C161.367 11.7607 160.609 12.9426 160.081 14.3288C159.554 15.715 159.29 17.4363 159.29 19.1001C159.29 20.7365 159.54 22.1823 160.04 23.4354C160.543 24.6908 161.215 25.7396 162.062 26.5842C162.907 27.4287 163.896 28.0622 165.032 28.4844C166.166 28.9067 167.368 29.1179 168.635 29.1179C169.532 29.1179 170.331 29.0054 171.031 28.7805C171.729 28.5579 172.323 28.3008 172.812 28.0094C173.301 27.7202 173.684 27.4356 173.962 27.1579C174.237 26.8825 174.402 26.7035 174.455 26.6232V28.5648L180 28.5625V9.71585C179.867 9.63552 179.575 9.48405 179.128 9.25914ZM152.662 0.354499C151.815 0.354499 151.09 0.645965 150.484 1.2266C149.876 1.80724 149.57 2.51869 149.57 3.36326C149.57 4.20782 149.876 4.92846 150.484 5.52286C151.09 6.11498 151.815 6.41333 152.662 6.41333C153.532 6.41333 154.271 6.11498 154.876 5.52286C155.485 4.92846 155.788 4.20782 155.788 3.36326C155.788 2.51869 155.485 1.80724 154.876 1.2266C154.271 0.645965 153.532 0.354499 152.662 0.354499ZM149.908 28.5625H155.452V7.69624L149.908 9.29586V28.5625ZM64.1041 17.2343C64.5815 15.9491 65.0681 14.6524 65.5592 13.3534C66.048 12.0522 66.5001 10.8565 66.9109 9.76633C67.3241 8.67391 67.689 7.73754 68.008 6.95494C68.3247 6.17235 68.5519 5.6399 68.685 5.35991C68.8181 5.6399 69.043 6.17235 69.362 6.95494C69.681 7.73754 70.0459 8.67391 70.4567 9.76633C70.8675 10.8565 71.3197 12.0522 71.8108 13.3534C72.3019 14.6524 72.7862 15.9491 73.2635 17.2343H64.1041ZM79.4761 18.1982C78.8129 16.4655 78.1496 14.7947 77.4864 13.1836C76.8208 11.5748 76.2103 10.0876 75.6526 8.71751C75.095 7.3451 74.5923 6.14939 74.1402 5.12812C73.6904 4.10684 73.3301 3.31735 73.0639 2.75737C72.4809 1.44233 72.2262 0.85251 72.2262 0.85251H65.1415C65.1415 0.85251 64.8867 1.44233 64.3038 2.75737C64.0376 3.31735 63.6796 4.10684 63.2297 5.12812C62.7776 6.14939 62.2727 7.3451 61.715 8.71751C61.1596 10.0876 60.5469 11.5748 59.8836 13.1836C59.2204 14.7947 58.5571 16.4655 57.8916 18.1982C57.2283 19.9332 56.565 21.682 55.9018 23.4446C55.2385 25.2072 54.6143 26.9124 54.0313 28.5625H59.8836L62.1534 22.4371H75.2143L77.4864 28.5625H83.3386C82.7557 26.9124 82.1315 25.2072 81.4659 23.4446C80.8026 21.682 80.1394 19.9332 79.4761 18.1982ZM35.1273 0.354492C34.2828 0.354492 33.5553 0.645959 32.9494 1.2266C32.3412 1.80723 32.0383 2.51869 32.0383 3.36325C32.0383 4.20782 32.3412 4.92845 32.9494 5.52286C33.5553 6.11497 34.2828 6.41332 35.1273 6.41332C35.9971 6.41332 36.7361 6.11497 37.3443 5.52286C37.9502 4.92845 38.2554 4.20782 38.2554 3.36325C38.2554 2.51869 37.9502 1.80723 37.3443 1.2266C36.7361 0.645959 35.9971 0.354492 35.1273 0.354492ZM32.3756 28.5625H37.9181V7.69623L32.3756 9.29585V28.5625ZM10.0727 17.2343C10.5524 15.9491 11.0366 14.6524 11.5277 13.3534C12.0189 12.0522 12.471 10.8565 12.8818 9.76633C13.2926 8.67391 13.6598 7.73754 13.9788 6.95494C14.2955 6.17235 14.5227 5.6399 14.6535 5.35991C14.789 5.6399 15.0139 6.17235 15.3306 6.95494C15.6519 7.73754 16.0168 8.67391 16.4276 9.76633C16.8384 10.8565 17.2905 12.0522 17.7794 13.3534C18.2728 14.6524 18.757 15.9491 19.2344 17.2343H10.0727ZM25.447 18.1982C24.7837 16.4655 24.1182 14.7947 23.4549 13.1836C22.7917 11.5748 22.1812 10.0876 21.6235 8.71751C21.0658 7.3451 20.5609 6.14939 20.1088 5.12812C19.659 4.10684 19.3009 3.31735 19.0347 2.75737C18.4495 1.44233 18.197 0.85251 18.197 0.85251H11.1123C11.1123 0.85251 10.8576 1.44233 10.2747 2.75737C10.0084 3.31735 9.65042 4.10684 9.19831 5.12812C8.74848 6.14939 8.24358 7.3451 7.68589 8.71751C7.12821 10.0876 6.51773 11.5748 5.85448 13.1836C5.19122 14.7947 4.52566 16.4655 3.86241 18.1982C3.19915 19.9332 2.53589 21.682 1.87034 23.4446C1.20708 25.2072 0.582835 26.9124 0.00219727 28.5625H5.85448L8.12424 22.4371H21.1851L23.4549 28.5625H29.3072C28.7243 26.9124 28.1 25.2072 27.4368 23.4446C26.7735 21.682 26.1102 19.9332 25.447 18.1982ZM54.9333 12.5135C55.5047 11.1227 56.0395 9.82141 56.5306 8.61424C56.5489 8.56833 56.5673 8.52473 56.5857 8.47883C56.028 8.18736 55.2224 7.93721 54.0657 7.75131C53.4048 7.64574 52.7048 7.59525 51.9658 7.59525C50.7517 7.59525 49.6295 7.70771 48.6013 7.93032C47.5709 8.15523 46.6666 8.40539 45.8886 8.68309C45.1083 8.96078 44.4818 9.23159 44.0067 9.49552C43.5316 9.75945 43.2402 9.93157 43.1369 10.0096V28.5648H48.6794V13.0597C48.918 12.9266 49.338 12.7498 49.9485 12.5249C50.5544 12.3 51.4127 12.1876 52.5212 12.1876C52.8907 12.1876 53.2785 12.2151 53.6894 12.2679C54.0979 12.3207 54.4261 12.3643 54.8369 12.4836C54.8713 12.4951 54.9012 12.502 54.9333 12.5135Z" fill="#E81142"/>
<path d="M107.009 51.7122C107.009 52.9859 106.686 54.0462 106.038 54.8954C105.389 55.7445 104.418 56.1691 103.124 56.1691C101.827 56.1691 100.817 55.694 100.09 54.7462C99.3646 53.796 99.0019 52.5384 99.0019 50.9755C99.0019 50.1929 99.1075 49.3736 99.321 48.7149C99.5321 48.0562 99.8557 47.4802 100.292 46.989C100.728 46.4979 101.285 46.1192 101.967 45.8507C102.649 45.5822 103.457 45.4468 104.398 45.4468C105.111 45.4468 105.692 45.4812 106.139 45.5478C106.585 45.6143 106.876 45.6832 107.009 45.7497V51.7122ZM137.638 42.0043L132.938 43.3606V55.8593H127.428C126.82 55.8593 126.329 55.7743 125.957 55.6045C125.583 55.4347 125.303 55.1891 125.112 54.8609C124.92 54.535 124.796 54.1334 124.738 53.6606C124.683 53.1879 124.653 52.6371 124.653 52.0036V42.0043L119.988 43.3514V52.0036C119.988 52.6371 119.955 53.1879 119.887 53.6606C119.818 54.1334 119.689 54.535 119.496 54.8609C119.306 55.1891 119.028 55.4347 118.67 55.6045C118.308 55.7743 117.823 55.8593 117.215 55.8593H111.703V43.5328C111.59 43.4662 111.345 43.3377 110.964 43.1472C110.583 42.959 110.071 42.7685 109.424 42.578C108.774 42.3875 107.982 42.2154 107.044 42.0594C106.105 41.9033 105.033 41.823 103.826 41.823C102.327 41.823 100.989 42.0525 99.8029 42.5115C98.6187 42.9705 97.6089 43.6131 96.7712 44.4393C95.9335 45.2655 95.2909 46.2661 94.8434 47.4389C94.3959 48.6116 94.1732 50.069 94.1732 51.4781C94.1732 52.8643 94.3867 54.0875 94.8113 55.1478C95.2335 56.2081 95.805 57.0963 96.5187 57.8123C97.2348 58.5261 98.0725 59.0631 99.0341 59.4211C99.9934 59.7768 101.01 59.9559 102.082 59.9559C102.841 59.9559 103.519 59.8618 104.111 59.6713C104.703 59.4831 105.205 59.2651 105.618 59.0172C106.032 58.7716 106.357 58.5329 106.589 58.2989C106.826 58.0625 106.966 57.911 107.009 57.8444V59.8503H111.703V59.8479L118.23 59.8503C119.109 59.8503 119.932 59.6919 120.699 59.3752C121.463 59.0608 122.074 58.4526 122.524 57.5484C122.976 58.4526 123.543 59.0608 124.231 59.3752C124.92 59.6919 125.702 59.8503 126.581 59.8503H137.638V42.0043ZM122.567 61.4729C121.844 61.4729 121.225 61.7207 120.706 62.2164C120.187 62.7122 119.928 63.3203 119.928 64.041C119.928 64.7639 120.187 65.3767 120.706 65.8839C121.225 66.3911 121.844 66.6458 122.567 66.6458C123.311 66.6458 123.94 66.3911 124.458 65.8839C124.977 65.3767 125.236 64.7639 125.236 64.041C125.236 63.3203 124.977 62.7122 124.458 62.2164C123.94 61.7207 123.311 61.4729 122.567 61.4729ZM61.0746 56.0383C59.3074 56.5592 56.7324 56.0497 56.5374 55.9579V46.2546C56.5374 46.2546 58.3963 44.9373 60.673 45.3711C62.9496 45.8048 64.5538 47.6179 64.5538 50.9043C64.5538 53.5092 63.3352 55.3727 61.0746 56.0383ZM84.7385 55.8593H81.592C80.9838 55.8593 80.495 55.7743 80.1232 55.6045C79.7514 55.4347 79.4691 55.1891 79.2786 54.8609C79.0858 54.535 78.9619 54.1334 78.9045 53.6606C78.8471 53.1879 78.8219 52.6371 78.8219 52.0036V35.5989L74.1194 36.9575V52.0036C74.1194 52.6371 74.0919 53.1879 74.0368 53.6606C73.9794 54.1334 73.8555 54.535 73.6627 54.8609C73.4722 55.1891 73.1968 55.4347 72.8365 55.6045C72.4739 55.7743 71.9897 55.8593 71.3815 55.8593H68.2511C68.9878 54.48 69.3848 52.761 69.3848 50.7712C69.3848 45.573 66.4128 42.3669 62.1372 41.8826C59.6792 41.605 57.2649 42.461 56.5351 42.7502L56.5374 35.5989L51.8395 36.9254V55.8593H49.8773C49.2691 55.8593 48.778 55.7743 48.4085 55.6045C48.0344 55.4347 47.7521 55.1891 47.5616 54.8609C47.3711 54.535 47.2449 54.1334 47.1898 53.6606C47.1324 53.1879 47.1049 52.6371 47.1049 52.0036V42.0043L42.4392 43.3514V52.0036C42.4392 52.6371 42.4047 53.1879 42.3359 53.6606C42.2716 54.1334 42.1408 54.535 41.948 54.8609C41.7552 55.1891 41.4798 55.4347 41.1195 55.6045C40.7592 55.7743 40.275 55.8593 39.6668 55.8593H34.1542V42.0089L29.4563 43.3652C29.4563 43.3699 29.454 43.3721 29.454 43.3767V59.6988C29.454 60.7132 29.2107 61.4178 28.7265 61.8125C28.2422 62.2073 27.5835 62.4046 26.7504 62.4046C26.2065 62.4046 25.7131 62.3358 25.2609 62.2027C24.8111 62.065 24.5265 61.9755 24.4164 61.9319L23.2987 65.076C23.3446 65.0967 23.4915 65.1609 23.7394 65.2619C23.9872 65.3629 24.3039 65.4662 24.6872 65.5672C25.0682 65.6681 25.5088 65.7576 26.0045 65.8357C26.5002 65.9137 27.0189 65.955 27.5605 65.955C28.4395 65.955 29.2795 65.8471 30.0805 65.6337C30.8791 65.418 31.5768 65.0485 32.1781 64.516C32.7725 63.9882 33.2522 63.2882 33.6125 62.423C33.9705 61.5647 34.1472 60.4814 34.1518 59.1756V59.8503H40.6811C41.5601 59.8503 42.3817 59.6919 43.1483 59.3752C43.9148 59.0608 44.5253 58.4526 44.9751 57.5484C45.4249 58.4526 45.9941 59.0608 46.6826 59.3752C47.3711 59.6919 48.1537 59.8503 49.0327 59.8503H72.3959C73.2749 59.8503 74.0965 59.6919 74.8653 59.3752C75.6319 59.0608 76.24 58.4526 76.6898 57.5484C77.1397 58.4526 77.7111 59.0608 78.3973 59.3752C79.0858 59.6919 79.8684 59.8503 80.7474 59.8503H89.4386V35.5989L84.7385 36.9553V55.8593ZM115.519 61.4729C114.796 61.4729 114.177 61.7207 113.658 62.2164C113.139 62.7122 112.88 63.3203 112.88 64.041C112.88 64.7639 113.139 65.3767 113.658 65.8839C114.177 66.3911 114.796 66.6458 115.519 66.6458C116.263 66.6458 116.894 66.3911 117.41 65.8839C117.931 65.3767 118.191 64.7639 118.191 64.041C118.191 63.3203 117.931 62.7122 117.41 62.2164C116.894 61.7207 116.263 61.4729 115.519 61.4729ZM129.645 61.4729C128.901 61.4729 128.27 61.7253 127.754 62.2325C127.235 62.742 126.974 63.3548 126.974 64.0754C126.974 64.7983 127.235 65.4042 127.754 65.9022C128.27 66.398 128.901 66.6458 129.645 66.6458C130.368 66.6458 130.988 66.398 131.506 65.9022C132.025 65.4042 132.284 64.7983 132.284 64.0754C132.284 63.3548 132.025 62.742 131.506 62.2325C130.988 61.7253 130.368 61.4729 129.645 61.4729ZM175.265 36.9667V59.8824H180V35.5989L175.265 36.9667ZM166.962 53.6262C166.962 54.6429 166.719 55.3452 166.234 55.7399C165.75 56.1347 165.089 56.332 164.256 56.332H156.056C155.854 56.1783 155.661 56.0107 155.48 55.8179C155.039 55.3475 154.69 54.7554 154.433 54.0439C154.172 53.3325 154.043 52.5062 154.043 51.5653C154.043 49.7545 154.505 48.3592 155.429 47.3815C156.354 46.4038 157.539 45.9173 158.98 45.9173C159.634 45.9173 160.219 45.9999 160.738 46.1697C161.247 46.335 161.683 46.53 162.05 46.755L163.882 43.2C163.547 42.9361 162.955 42.64 162.108 42.3141C161.263 41.9882 160.049 41.823 158.475 41.823C157.187 41.823 155.987 42.0479 154.872 42.4954C153.754 42.9429 152.781 43.5878 151.946 44.4324C151.112 45.277 150.454 46.2959 149.967 47.4916C149.483 48.6851 149.242 50.0437 149.242 51.5653C149.242 53.1328 149.483 54.5213 149.967 55.7284C150.052 55.9373 150.149 56.1347 150.243 56.332H145.889V42.0089L141.189 43.3652V59.6988C141.189 60.7132 140.948 61.4178 140.461 61.8125C139.977 62.2073 139.318 62.4046 138.483 62.4046C137.944 62.4046 137.448 62.3358 136.996 62.2027C136.546 62.065 136.264 61.9755 136.151 61.9319L135.036 65.076C135.08 65.0967 135.226 65.1609 135.474 65.2619C135.722 65.3629 136.037 65.4662 136.422 65.5672C136.805 65.6681 137.244 65.7576 137.739 65.8357C138.235 65.9137 138.754 65.955 139.295 65.955C140.174 65.955 141.014 65.8471 141.813 65.6337C142.616 65.418 143.314 65.0485 143.911 64.516C144.507 63.9882 144.987 63.2882 145.347 62.423C145.708 61.5555 145.889 60.4608 145.889 59.1365V59.8824H165.068C165.947 59.8824 166.785 59.7745 167.588 59.5611C168.387 59.3477 169.092 58.9736 169.7 58.4457C170.31 57.9156 170.794 57.2156 171.155 56.3481C171.515 55.4806 171.696 54.3813 171.696 53.0525V35.5989L166.962 36.9667V53.6262ZM106.901 40.0971C107.645 40.0971 108.276 39.8424 108.792 39.3352C109.313 38.828 109.573 38.2152 109.573 37.4923C109.573 36.7716 109.313 36.1635 108.792 35.6678C108.276 35.1697 107.645 34.9219 106.901 34.9219C106.181 34.9219 105.559 35.1697 105.04 35.6678C104.521 36.1635 104.262 36.7716 104.262 37.4923C104.262 38.2152 104.521 38.828 105.04 39.3352C105.559 39.8424 106.181 40.0971 106.901 40.0971ZM8.8103 40.5401C9.55389 40.5401 10.1827 40.2876 10.7014 39.7804C11.2224 39.2709 11.4817 38.6582 11.4817 37.9375C11.4817 37.2146 11.2224 36.6064 10.7014 36.1107C10.1827 35.615 9.55389 35.3671 8.8103 35.3671C8.08738 35.3671 7.46772 35.615 6.94905 36.1107C6.43267 36.6064 6.17104 37.2146 6.17104 37.9375C6.17104 38.6582 6.43267 39.2709 6.94905 39.7804C7.46772 40.2876 8.08738 40.5401 8.8103 40.5401ZM99.8534 40.0971C100.599 40.0971 101.228 39.8424 101.747 39.3352C102.265 38.828 102.525 38.2152 102.525 37.4923C102.525 36.7716 102.265 36.1635 101.747 35.6678C101.228 35.1697 100.599 34.9219 99.8534 34.9219C99.1328 34.9219 98.5108 35.1697 97.9944 35.6678C97.4758 36.1635 97.2141 36.7716 97.2141 37.4923C97.2141 38.2152 97.4758 38.828 97.9944 39.3352C98.5108 39.8424 99.1328 40.0971 99.8534 40.0971ZM12.9689 49.7293C12.9689 52.7358 12.9689 56.1324 8.83555 56.1324C4.69994 56.1324 4.69994 52.7358 4.69994 49.7293V45.7314L-0.000244141 47.0854V49.5388C-0.000244141 49.6903 0.00204782 49.8394 0.00433916 49.9886C0.0410593 51.7099 0.27974 53.1902 0.724973 54.4272C1.20692 55.7675 1.85412 56.8599 2.66655 57.7067C3.47899 58.5513 4.42912 59.1664 5.51237 59.5496C6.59791 59.9329 7.74312 60.1234 8.948 60.1234C10.0726 60.1234 11.1558 59.9559 12.2023 59.6185C13.242 59.2788 14.1737 58.7097 14.9862 57.9087C15.7986 57.1077 16.4481 56.0497 16.9277 54.7301C17.4097 53.4105 17.653 51.7718 17.653 49.8096V42.0089L12.9689 43.356L12.9689 49.7293ZM44.9751 61.4729C44.2545 61.4729 43.6348 61.7207 43.1161 62.2164C42.5975 62.7122 42.3381 63.3203 42.3381 64.041C42.3381 64.7639 42.5975 65.3767 43.1161 65.8839C43.6348 66.3911 44.2545 66.6458 44.9751 66.6458C45.721 66.6458 46.3498 66.3911 46.8685 65.8839C47.3871 65.3767 47.6465 64.7639 47.6465 64.041C47.6465 63.3203 47.3871 62.7122 46.8685 62.2164C46.3498 61.7207 45.721 61.4729 44.9751 61.4729ZM25.9013 35.5691L21.2011 36.9254V59.848H25.9013V35.5691ZM37.9294 61.4729C37.2065 61.4729 36.5868 61.7207 36.0682 62.2164C35.5495 62.7122 35.2901 63.3203 35.2901 64.041C35.2901 64.7639 35.5495 65.3767 36.0682 65.8839C36.5868 66.3911 37.2065 66.6458 37.9294 66.6458C38.673 66.6458 39.3041 66.3911 39.8205 65.8839C40.3392 65.3767 40.6008 64.7639 40.6008 64.041C40.6008 63.3203 40.3392 62.7122 39.8205 62.2164C39.3041 61.7207 38.673 61.4729 37.9294 61.4729Z" fill="#E81142"/>
</g>
<defs>
<clipPath id="clip0_103_8918">
<rect width="180" height="66.2914" fill="white" transform="translate(0 0.354492)"/>
</clipPath>
</defs>
</svg>
