<svg width="250" height="41" viewBox="0 0 250 41" fill="none" xmlns="http://www.w3.org/2000/svg">
<g clip-path="url(#clip0_103_8897)">
<path d="M14.6049 20.929C16.2454 14.7657 14.3744 8.3073 9.8992 4.88476C3.80301 8.74397 0.287767 16.0001 1.5575 23.56C1.97587 26.0592 2.88212 28.3559 4.15795 30.3685C8.92464 29.0414 13.1156 26.5288 14.6049 20.929ZM22.8332 38.715C32.8947 37.0257 39.6788 27.4997 37.9882 17.4418C36.5819 9.06963 29.7563 2.96857 21.7074 2.12574C20.0827 1.95498 18.4043 2.00133 16.7114 2.2843C14.7049 2.62095 12.8339 3.2735 11.1299 4.17732C19.9973 7.18516 24.7652 11.7567 25.0957 16.4416C25.258 19.3336 23.9138 21.4254 22.1477 23.1306L34.6864 22.2549C35.0414 22.2305 35.1524 22.6439 34.723 22.7671L4.81538 31.3418C7.85982 35.5352 12.5875 38.3247 17.8384 38.8736C19.4631 39.0444 21.1414 39.0005 22.8332 38.715ZM21.8232 1.02433C31.6725 2.05012 39.3543 10.3735 39.358 20.4936C39.3616 31.3077 30.5967 40.0787 19.7814 40.0824C8.96611 40.086 0.196287 31.3223 0.192628 20.507C0.188969 9.69169 8.95269 0.920651 19.768 0.916992C20.4608 0.916992 21.1475 0.954804 21.8232 1.02433Z" fill="white"/>
<path d="M1.55779 23.5609C1.97615 26.0589 2.88241 28.3556 4.15824 30.3682C8.92492 29.0411 13.1159 26.5285 14.6064 20.9287C16.2457 14.7655 14.3747 8.30702 9.89826 4.88447C3.8033 8.74368 0.288052 16.001 1.55779 23.5609ZM37.9885 17.4403C39.6791 27.4994 32.895 37.0254 22.8334 38.7148C21.1417 39.0002 19.4633 39.0441 17.8375 38.8733C12.589 38.3244 7.85888 35.5349 4.81567 31.3415L34.7233 22.7669C35.1527 22.6424 35.0417 22.2302 34.6867 22.2546L22.148 23.1303C23.9141 21.4252 25.2583 19.3333 25.096 16.4414C24.7655 11.7564 19.9976 7.18487 11.1302 4.17703C12.8341 3.27321 14.7052 2.62066 16.7116 2.28402C18.4046 2.00104 20.083 1.95469 21.7076 2.12545C29.7566 2.96828 36.5822 9.06934 37.9885 17.4403Z" fill="#C70A0C"/>
<path d="M140.785 28.1801V21.7412H134.329V28.1801H130.786V12.8433H134.329V18.9529H140.785V12.8433H144.356V28.1801H140.785Z" fill="black"/>
<path d="M64.4138 12.8433V22.4449C64.4138 23.5061 64.5699 24.4245 64.8785 25.171C65.1847 25.9114 65.6287 26.5274 66.1983 27.0006C66.7728 27.4787 67.4668 27.8312 68.2584 28.0483C69.0634 28.2703 69.9721 28.3838 70.9589 28.3838C71.9444 28.3838 72.8446 28.2703 73.6325 28.0483C74.4082 27.8312 75.0693 27.48 75.5999 27.0055C76.1293 26.5322 76.5452 25.9163 76.8355 25.1747C77.1282 24.4306 77.2746 23.5122 77.2746 22.4449V12.8433H73.9594V22.3425C73.9594 23.3097 73.7191 24.0916 73.2458 24.6648C72.7616 25.2491 71.992 25.5455 70.9589 25.5455C69.9428 25.5455 69.1793 25.2503 68.6865 24.6673C68.2035 24.0952 67.9583 23.3134 67.9583 22.3425V12.8433H64.4138Z" fill="black"/>
<path d="M54.1925 28.1825V15.7072H50.0259V12.8433H61.928V14.2167C61.928 15.0388 61.2608 15.7072 60.4387 15.7072H57.737V28.1825H54.1925Z" fill="black"/>
<path d="M111.15 12.8428H114.694V28.1796H111.15V12.8428Z" fill="black"/>
<path d="M99.3465 21.0279L99.4661 21.1803L103.994 27.0143C104.569 27.7571 105.439 28.184 106.379 28.184H109.202L102.715 19.9338L102.62 19.8118L102.715 19.691L108.048 12.8374H104.36L99.4697 19.4483L99.3465 19.6081L99.3453 19.3312V12.8374H95.8008V28.1754H99.3453V21.3011L99.3465 21.0279Z" fill="black"/>
<path d="M84.0929 19.8628H86.1591C86.9031 19.8628 87.4703 19.6579 87.8435 19.2566C88.2131 18.8589 88.4009 18.3418 88.4009 17.7209C88.4009 17.0842 88.218 16.561 87.8582 16.1634C87.4922 15.7584 86.9214 15.5547 86.1591 15.5547H84.0929V19.8628ZM91.1807 28.1776C90.1305 28.1776 89.1413 27.6202 88.5985 26.7225L85.8407 22.1693H84.0929V28.1776H80.5508V12.8433H86.8665C88.4888 12.8433 89.7597 13.2665 90.6428 14.102C91.5234 14.9351 91.9698 16.0768 91.9698 17.4941C91.9698 18.2137 91.7783 18.9431 91.4002 19.6615C91.027 20.3677 90.3659 20.9459 89.4328 21.3789L89.2279 21.474L93.5311 28.1776H91.1807Z" fill="black"/>
<path d="M117.603 27.5293V24.5885C118.732 25.1081 120.185 25.6265 121.688 25.6265C123.418 25.6265 124.295 25.0337 124.295 23.8969C124.295 22.5626 123.118 22.415 120.761 21.4014C119.157 20.6854 117.629 19.573 117.629 17.0043C117.629 14.0147 119.91 12.606 123.068 12.606C124.746 12.606 126.175 13.0011 126.977 13.2975V16.1639C126.175 15.7931 124.746 15.3479 123.318 15.3479C121.764 15.3479 121.037 15.9163 121.037 16.9043C121.037 17.9423 121.915 18.2643 123.493 18.857C125.523 19.8694 127.879 20.3146 127.879 23.7738C127.879 26.7633 125.499 28.3941 122.315 28.3941C120.36 28.3941 118.807 28.0477 117.603 27.5293Z" fill="black"/>
<path d="M227.081 28.1793V12.8413H236.685V14.233C236.685 15.0454 236.024 15.7052 235.213 15.7052H230.626V19.0046H235.776V21.5648H230.626V25.3167H236.685V28.1793H227.081Z" fill="black"/>
<path d="M192.041 28.1781V12.8413H193.763C194.767 12.8413 195.584 13.6585 195.584 14.6624V25.4155H201.241V28.1781H192.041Z" fill="black"/>
<path d="M170.102 28.1757V12.8486H173.646L173.645 28.1757H170.102Z" fill="black"/>
<path d="M180.439 19.8611H182.505C183.249 19.8611 183.815 19.6574 184.189 19.2561C184.559 18.8572 184.747 18.3413 184.747 17.7192C184.747 17.0838 184.564 16.5593 184.203 16.1616C183.838 15.7579 183.266 15.553 182.505 15.553H180.439V19.8611ZM187.526 28.1759C186.476 28.1759 185.486 27.6185 184.943 26.722L182.186 22.1688H180.439V28.1759H176.896V12.8428H183.211C184.834 12.8428 186.104 13.266 186.988 14.1015C187.869 14.9346 188.316 16.0763 188.316 17.4936C188.316 18.2132 188.124 18.9426 187.745 19.661C187.373 20.366 186.71 20.9442 185.779 21.3784L185.574 21.4735L189.877 28.1759H187.526Z" fill="black"/>
<path d="M157.92 22.5903L159.312 18.714C159.62 17.8419 159.93 16.921 160.136 16.2429H160.188C160.368 16.9454 160.678 17.8175 160.987 18.714L162.327 22.5903H157.92ZM162.299 12.8398H158.229L152.445 28.1779H154.998C155.647 28.1779 156.219 27.7644 156.421 27.1497L157.015 25.3493H163.236L164.146 28.1779H167.985L162.299 12.8398Z" fill="black"/>
<path d="M239.532 27.5293V24.5898C240.659 25.1081 242.113 25.6265 243.617 25.6265C245.346 25.6265 246.223 25.0337 246.223 23.8969C246.223 22.5626 245.045 22.415 242.69 21.4026C241.086 20.6854 239.556 19.5742 239.556 17.0043C239.556 14.0147 241.837 12.606 244.995 12.606C246.674 12.606 248.103 13.0011 248.905 13.2975V16.1639C248.103 15.7943 246.674 15.3491 245.246 15.3491C243.692 15.3491 242.965 15.9175 242.965 16.9055C242.965 17.9423 243.842 18.2643 245.421 18.857C247.451 19.8694 249.807 20.3146 249.807 23.7738C249.807 26.7633 247.426 28.3941 244.244 28.3941C242.288 28.3941 240.734 28.0477 239.532 27.5293Z" fill="black"/>
<path d="M210.311 12.8433H212.508C213.551 12.8433 214.521 13.3812 215.072 14.2667L219.349 21.1386C219.832 21.9022 220.392 22.9109 220.724 23.6244H220.8C220.748 22.9353 220.724 21.9753 220.724 21.2862V12.8433H223.829V28.1789H219.943L214.741 19.8823C214.257 19.12 213.748 18.2088 213.391 17.5197H213.341C213.367 18.1844 213.417 18.9724 213.417 19.7103V28.1789H210.311V12.8433Z" fill="black"/>
<path d="M203.522 28.1757V12.8486H207.065V28.1757H203.522Z" fill="black"/>
</g>
<defs>
<clipPath id="clip0_103_8897">
<rect width="250" height="39.5511" fill="white" transform="translate(0 0.724609)"/>
</clipPath>
</defs>
</svg>
