<svg width="250" height="65" viewBox="0 0 250 65" fill="none" xmlns="http://www.w3.org/2000/svg">
<path d="M22.1271 32.4977C25.4199 27.8704 29.2417 28.791 33.7466 29.3108C32.5512 28.0337 31.9628 26.4226 31.9628 24.6926C31.9628 20.7075 35.2686 17.4759 39.3484 17.4759C47.8681 17.4759 46.8157 27.1204 43.1201 27.1204C42.2904 27.1204 41.6241 26.5377 41.444 25.8472C41.2955 25.2773 41.4382 24.6073 41.2417 24.0671C40.9652 23.3136 40.2004 22.7604 39.3447 22.7604C38.7934 22.7604 38.2978 22.9777 37.934 23.3284C36.7869 24.4346 37.5034 26.649 38.2515 27.7813C39.2928 29.3516 41.1211 30.3651 43.2185 30.3447L43.56 30.3341C49.4013 29.677 51.1202 24.7045 49.6371 20.1921C48.993 18.2321 46.7452 15.3476 44.2134 14.1392C48.8761 11.4404 50.3072 5.21669 50.142 1.52295L0 32.4984L50.142 63.4775C50.3072 59.7819 48.8761 53.5583 44.2134 50.8613C46.7452 49.6511 48.993 46.7665 49.6371 44.8065C51.1202 40.2942 49.4014 35.3216 43.56 34.6627L43.2185 34.6522C41.1211 34.6311 39.2928 35.6452 38.2515 37.2155C37.5035 38.3478 36.787 40.5621 37.934 41.6684C38.2979 42.0193 38.7934 42.2363 39.3447 42.2363C40.2004 42.2363 40.9651 41.6851 41.2417 40.9297C41.4385 40.3895 41.2955 39.7213 41.444 39.1496C41.6241 38.4591 42.2904 37.8763 43.1201 37.8763C46.8157 37.8763 47.8681 47.5208 39.3484 47.5208C35.2686 47.5208 31.9628 44.2893 31.9628 40.3041C31.9628 38.5742 32.5512 36.963 33.7466 35.686C29.2417 36.2074 25.4199 37.1288 22.1271 32.4977Z" fill="#9B804D"/>
<path d="M83.5722 48.129V32.3109C83.5722 32.1141 83.5669 31.9211 83.5617 31.7318V31.7213L83.5511 31.5192V31.5087V31.4929L83.5474 31.4561V31.4403C83.1928 25.8941 79.4008 23.9897 74.6751 23.9897C70.9665 23.9897 68.0152 25.1869 66.5192 26.6514V29.6008C68.5367 28.5132 71.4268 27.4775 73.6895 27.4775C76.5015 27.4775 78.469 28.3238 78.4746 31.4403L78.4764 31.4666V31.736L78.487 33.2655C71.1515 33.9801 65.0132 35.3109 65.0132 41.6627C65.0132 46.3142 68.2763 49.5346 74.8526 49.5346C77.1078 49.5346 81.7179 49.1221 83.5722 48.129ZM78.487 45.8131C77.0354 46.4089 74.4536 46.4664 73.0726 46.0546C72.2726 45.8152 71.6155 45.4476 71.1329 44.9018C70.4981 44.1835 70.1566 43.1738 70.1566 41.8411C70.1566 37.4587 73.7223 36.4861 78.487 36.4861V45.8131Z" fill="#253168"/>
<path d="M179.092 49.0481V45.1817C178.654 45.3117 178.305 45.4006 177.823 45.4006C175.983 45.4006 175.239 44.1738 175.239 42.3343V27.4721H179.092V24.0864H175.239V18.106L169.895 21.4433L169.897 24.0864H167.064V27.4721H169.897V43.1342C169.897 46.4177 171.736 49.5306 176.377 49.5306C177.648 49.5306 178.61 49.267 179.092 49.0481Z" fill="#253168"/>
<path d="M164.097 42.0195C164.097 39.1369 162.981 36.6626 158.105 34.7397C155.922 33.871 154.389 32.8631 154.389 30.8492C154.389 29.1081 155.644 27.5973 157.966 27.5973C159.731 27.5973 161.747 28.7462 162.662 29.7169V26.7044C159.516 21.9508 148.91 23.3689 148.91 31.1238C148.91 33.6872 149.884 36.2506 154.623 38.0362C157.177 38.9977 158.623 39.9572 158.623 42.0621C158.623 46.5781 151.395 46.0325 148.886 44.1633L148.912 48.1095C150.39 48.8594 152.257 49.5294 155.182 49.5294C160.662 49.5294 164.097 46.0492 164.097 42.0195Z" fill="#253168"/>
<path d="M225.653 48.8605L225.649 31.4275C225.649 27.5018 223.261 23.9844 215.998 23.9844C211.892 23.9844 208.779 24.66 206.479 25.744L206.481 48.8605H211.985L211.983 28.1329C213.02 27.7283 213.967 27.4572 215.771 27.4572C219.246 27.4572 220.148 29.5324 220.148 31.5166L220.15 48.8605H225.653Z" fill="#253168"/>
<path d="M112.648 24.0199C106.492 23.8084 103.247 24.5324 100.723 25.7498V48.8607H106.221V28.2296C107.481 27.5076 110.531 27.0937 112.647 27.9529L112.648 24.0199Z" fill="#253168"/>
<path d="M94.823 24.1011H89.4757V48.8602H94.823V24.1011Z" fill="#253168"/>
<path d="M144.485 48.129V32.311C144.485 32.1142 144.48 31.9211 144.475 31.7318V31.7213L144.464 31.5192V31.5087V31.493L144.461 31.4561V31.4403C144.106 25.8941 140.314 23.9897 135.588 23.9897C131.88 23.9897 128.928 25.187 127.43 26.6515V29.6008C129.45 28.5132 132.34 27.4775 134.603 27.4775C137.415 27.4775 139.382 28.3238 139.388 31.4403V31.4666V31.7361L139.398 33.2655C132.063 33.9801 125.924 35.311 125.924 41.6628C125.924 46.3143 129.188 49.5346 135.762 49.5346C138.019 49.5346 142.631 49.1221 144.485 48.129ZM139.398 45.8131C137.945 46.4089 135.365 46.4664 133.984 46.0546C133.184 45.8152 132.525 45.4476 132.044 44.9019C131.408 44.1836 131.068 43.1738 131.068 41.8411C131.068 37.4587 134.632 36.4861 139.398 36.4861V45.8131Z" fill="#253168"/>
<path d="M200.574 48.129V32.311C200.574 32.1142 200.57 31.9211 200.563 31.7318L200.561 31.7213L200.551 31.5192V31.5087V31.493L200.549 31.4561L200.547 31.4403C200.194 25.8941 196.4 23.9897 191.675 23.9897C187.968 23.9897 185.017 25.187 183.519 26.6515V29.6008C185.538 28.5132 188.426 27.4775 190.691 27.4775C193.503 27.4775 195.47 28.3238 195.476 31.4403V31.4666V31.7361L195.487 33.2655C188.151 33.9801 182.013 35.311 182.013 41.6628C182.013 46.3143 185.278 49.5346 191.852 49.5346C194.109 49.5346 198.721 49.1221 200.574 48.129ZM195.487 45.8131C194.035 46.4089 191.455 46.4664 190.072 46.0546C189.274 45.8152 188.615 45.4476 188.132 44.9019C187.498 44.1836 187.156 43.1738 187.156 41.8411C187.156 37.4587 190.722 36.4861 195.487 36.4861V45.8131Z" fill="#253168"/>
<path d="M248.607 48.129V32.311C248.607 32.1142 248.602 31.9211 248.597 31.7318L248.595 31.7213L248.584 31.5192V31.5087V31.493L248.581 31.4561V31.4403C248.226 25.8941 244.434 23.9897 239.708 23.9897C236 23.9897 233.048 25.187 231.552 26.6515V29.6008C233.572 28.5132 236.46 27.4775 238.723 27.4775C241.535 27.4775 243.502 28.3238 243.51 31.4403V31.4666V31.7361L243.52 33.2655C236.185 33.9801 230.046 35.311 230.046 41.6628C230.046 46.3143 233.309 49.5346 239.886 49.5346C242.141 49.5346 246.753 49.1221 248.607 48.129ZM243.52 45.8131C242.069 46.4089 239.489 46.4664 238.106 46.0546C237.308 45.8152 236.649 45.4476 236.166 44.9019C235.531 44.1836 235.19 43.1738 235.19 41.8411C235.19 37.4587 238.753 36.4861 243.52 36.4861V45.8131Z" fill="#253168"/>
<path d="M94.9988 18.143C94.9988 16.6525 93.7664 15.4683 92.1478 15.4683C90.5756 15.4683 89.2986 16.6525 89.2986 18.143C89.2986 19.5889 90.5756 20.7713 92.1478 20.7713C93.7664 20.7713 94.9988 19.5889 94.9988 18.143Z" fill="#253168"/>
</svg>
