<svg width="18" height="16" viewBox="0 0 18 16" fill="none" xmlns="http://www.w3.org/2000/svg">
<path d="M4.01055 12.5252L13.0172 10.9382C14.39 10.6904 14.9659 9.88015 14.7248 8.52747L13.6266 2.30648C13.3922 0.947103 12.5753 0.384603 11.2025 0.625675L2.18912 2.21273C0.809652 2.4605 0.240456 3.26407 0.481527 4.62345L1.57974 10.8444C1.81412 12.2038 2.62439 12.7663 4.01055 12.5252ZM3.83644 11.4605C3.18019 11.5743 2.75161 11.2864 2.63108 10.6034L1.55296 4.49621C1.43242 3.80648 1.73376 3.3913 2.39671 3.27077L11.3699 1.69041C12.0194 1.58326 12.4548 1.86451 12.5753 2.54755L13.6534 8.65467C13.7806 9.34444 13.4659 9.75958 12.8164 9.88015L3.83644 11.4605Z" fill="black"/>
<path d="M6.24834 14.6346H15.4023C16.7952 14.6346 17.4983 13.9382 17.4983 12.5587V6.24398C17.4983 4.86452 16.7952 4.16809 15.4023 4.16809H6.24834C4.84877 4.16809 4.15234 4.86452 4.15234 6.24398V12.5587C4.15234 13.9449 4.84877 14.6346 6.24834 14.6346Z" fill="white"/>
<path d="M6.24834 14.6346H15.4023C16.7952 14.6346 17.4983 13.9382 17.4983 12.5587V6.24398C17.4983 4.86452 16.7952 4.16809 15.4023 4.16809H6.24834C4.84877 4.16809 4.15234 4.86452 4.15234 6.24398V12.5587C4.15234 13.9449 4.84877 14.6346 6.24834 14.6346ZM6.2684 13.5565C5.59877 13.5565 5.23047 13.2016 5.23047 12.5051V6.30427C5.23047 5.60782 5.59877 5.24622 6.2684 5.24622H15.3823C16.0452 5.24622 16.4202 5.60782 16.4202 6.30427V12.5051C16.4202 13.2016 16.0452 13.5565 15.3823 13.5565H6.2684ZM6.27514 14.2797H15.2349C16.4068 14.2797 17.0229 13.6904 17.0229 12.5186V12.09L13.9225 9.1569C13.6613 8.91587 13.3398 8.7953 13.0117 8.7953C12.6836 8.7953 12.389 8.90245 12.1077 9.15022L9.40234 11.5475L8.33091 10.5766C8.06977 10.3422 7.80188 10.2351 7.51394 10.2351C7.2528 10.2351 6.99834 10.3422 6.74388 10.5632L4.48717 12.5252C4.48717 13.6904 5.10993 14.2797 6.27514 14.2797Z" fill="black"/>
<path d="M8.91883 9.30422C9.70232 9.30422 10.3384 8.65462 10.3384 7.87114C10.3384 7.10108 9.70232 6.45154 8.91883 6.45154C8.13535 6.45154 7.50586 7.10108 7.50586 7.87114C7.50586 8.65462 8.13535 9.30422 8.91883 9.30422Z" fill="black"/>
</svg>
