<svg width="32" height="32" viewBox="0 0 32 32" fill="none" xmlns="http://www.w3.org/2000/svg">
<g clip-path="url(#clip0_222_20164)">
<path d="M9.09794 30.7277C9.62026 30.7277 10.0086 30.4598 10.6381 29.8705L15.473 25.4509H24.5265C28.5175 25.4509 30.6604 23.2545 30.6604 19.3304V9.07143C30.6604 5.14733 28.5175 2.9375 24.5265 2.9375H7.27651C3.28544 2.9375 1.14258 5.13393 1.14258 9.07143V19.3304C1.14258 23.2679 3.28544 25.4509 7.27651 25.4509H7.90597V29.3482C7.90597 30.1785 8.33454 30.7277 9.09794 30.7277Z" fill="black"/>
<path d="M12.9687 19.4109C12.3928 19.8395 11.7097 19.451 11.9776 18.6877L13.1428 15.2323L10.116 13.076C9.49991 12.6341 9.76777 11.9242 10.4642 11.9242H14.1875L15.299 8.49567C15.5267 7.81264 16.3168 7.81264 16.5311 8.49567L17.6294 11.9242H21.3526C22.0491 11.9242 22.3168 12.6341 21.7008 13.076L18.7008 15.2323L19.8526 18.6877C20.1071 19.451 19.4374 19.8395 18.8481 19.4109L15.9151 17.2547L12.9687 19.4109Z" fill="white"/>
</g>
<defs>
<clipPath id="clip0_222_20164">
<rect width="29.5178" height="29.5848" fill="white" transform="translate(1.14258 1.14307)"/>
</clipPath>
</defs>
</svg>
