<svg width="17" height="16" viewBox="0 0 17 16" fill="none" xmlns="http://www.w3.org/2000/svg">
<g clip-path="url(#clip0_196_5300)">
<path d="M8.47292 14.8101C12.2095 14.8101 15.3033 11.7164 15.3033 7.97975C15.3033 4.24986 12.2029 1.14941 8.46623 1.14941C4.73633 1.14941 1.64258 4.24986 1.64258 7.97975C1.64258 11.7164 4.74302 14.8101 8.47292 14.8101Z" fill="black"/>
<path d="M4.30176 10.4642V8.50885C4.30176 7.8861 4.65667 7.53119 5.28613 7.53119H11.6611C12.2906 7.53119 12.6455 7.8861 12.6455 8.50885V10.4642C12.6455 10.6383 12.5317 10.7455 12.3576 10.7455H12.1701C12.0026 10.7455 11.8888 10.6383 11.8888 10.4642V9.9821C11.8486 9.98879 11.7415 9.98879 11.6611 9.98879H5.28613C5.20578 9.98879 5.09864 9.98879 5.05846 9.9821V10.4642C5.05846 10.6383 4.94461 10.7455 4.77721 10.7455H4.58971C4.42229 10.7455 4.30176 10.6383 4.30176 10.4642ZM5.09864 7.06245V6.12493C5.09864 5.52225 5.42007 5.20752 6.00935 5.20752H10.9379C11.5272 5.20752 11.8553 5.52225 11.8553 6.12493V7.06245H11.0182V6.60038C11.0182 6.29234 10.8509 6.11823 10.5093 6.11823H9.36425C9.03613 6.11823 8.86871 6.29234 8.86871 6.60038V7.06245H8.11871V6.60038C8.11871 6.29234 7.95133 6.11823 7.64328 6.11823H6.41783C6.0964 6.11823 5.93569 6.29234 5.93569 6.60038V7.06245H5.09864Z" fill="white"/>
</g>
<defs>
<clipPath id="clip0_196_5300">
<rect width="13.6607" height="13.6674" fill="white" transform="translate(1.64258 1.14307)"/>
</clipPath>
</defs>
</svg>
