<svg width="16" height="16" viewBox="0 0 16 16" fill="none" xmlns="http://www.w3.org/2000/svg">
<path d="M7.11467 13.9956C7.57004 13.9956 7.89815 13.6607 7.89815 13.2121V10.654H8.09238C10.6906 10.654 12.3245 11.3103 13.4964 13.5C13.7307 13.9286 14.0388 13.9956 14.32 13.9956C14.675 13.9956 15.0098 13.6741 15.0098 13.0982C15.0098 8.14955 12.9138 5.06251 8.09238 5.06251H7.89815V2.53126C7.89815 2.0826 7.57004 1.71429 7.10129 1.71429C6.77318 1.71429 6.55215 1.85492 6.19727 2.18974L0.913783 7.13171C0.652623 7.37947 0.572266 7.62727 0.572266 7.85492C0.572266 8.07589 0.659319 8.33035 0.913783 8.57144L6.19727 13.5603C6.51867 13.8616 6.78655 13.9956 7.11467 13.9956ZM6.73295 12.5558C6.69278 12.5558 6.65261 12.5357 6.61912 12.4956L1.84459 7.98218C1.79101 7.92858 1.77093 7.89509 1.77093 7.85492C1.77093 7.81475 1.79101 7.77458 1.84459 7.72767L6.61244 3.15403C6.64592 3.12724 6.68609 3.10045 6.72626 3.10045C6.78655 3.10045 6.82004 3.14063 6.82004 3.1942V5.85269C6.82004 6.00671 6.89369 6.07367 7.04769 6.07367H7.94501C12.5388 6.07367 13.925 9.26115 14.0589 12.4219C14.0589 12.4754 14.0388 12.4956 14.0053 12.4956C13.9785 12.4956 13.9651 12.4754 13.945 12.4286C13.1548 10.7478 11.1259 9.64287 7.94501 9.64287H7.04769C6.89369 9.64287 6.82004 9.70984 6.82004 9.86384V12.4554C6.82004 12.5156 6.78655 12.5558 6.73295 12.5558Z" fill="black"/>
</svg>
