<svg width="20" height="17" viewBox="0 0 20 17" fill="none" xmlns="http://www.w3.org/2000/svg">
<path d="M15.3263 0.953085C14.9999 0.618299 14.5144 0.626656 14.1963 0.953085L9.97759 5.26394C9.83524 5.41459 9.74316 5.63223 9.74316 5.82473C9.74316 6.26837 10.0445 6.56137 10.4798 6.56137C10.6974 6.56137 10.8648 6.49437 10.9987 6.35208L12.7482 4.54408L14.0959 2.98716L14.0122 4.92073V16.1038C14.0122 16.539 14.3219 16.8571 14.7572 16.8571C15.2007 16.8571 15.5104 16.539 15.5104 16.1038V4.92073L15.4268 2.98716L16.7744 4.54408L18.5155 6.35208C18.6578 6.49437 18.8252 6.56137 19.0429 6.56137C19.4781 6.56137 19.7795 6.26837 19.7795 5.82473C19.7795 5.63223 19.6874 5.41459 19.5451 5.26394L15.3263 0.953085Z" fill="#333333"/>
<path d="M4.46191 16.606C4.78836 16.9492 5.27385 16.9324 5.58357 16.606L9.80235 12.2951C9.95299 12.1445 10.0451 11.9268 10.0451 11.7427C10.0451 11.299 9.73535 10.9977 9.30006 10.9977C9.09085 10.9977 8.92342 11.073 8.78113 11.2153L7.04004 13.015L5.69238 14.5719L5.77609 12.6383L5.77609 1.45526C5.77609 1.02005 5.46638 0.710331 5.02274 0.710331C4.58748 0.710331 4.27776 1.02005 4.27776 1.45526L4.27776 12.6383L4.3531 14.5719L3.01381 13.015L1.26437 11.2153C1.12207 11.073 0.963033 10.9977 0.745397 10.9977C0.310129 10.9977 0.00878906 11.299 0.00878906 11.7427C0.00878906 11.9268 0.0924942 12.1445 0.243164 12.2951L4.46191 16.606Z" fill="#333333"/>
</svg>
