<svg width="36" height="32" viewBox="0 0 36 32" fill="none" xmlns="http://www.w3.org/2000/svg">
<path d="M3.48061 28.5312H32.3824C32.9716 28.5312 33.4672 28.0357 33.4672 27.4464C33.4672 26.8572 32.9716 26.375 32.3824 26.375H3.48061C2.89133 26.375 2.40918 26.8572 2.40918 27.4464C2.40918 28.0357 2.89133 28.5312 3.48061 28.5312Z" fill="black"/>
<path d="M8.38339 19.5581L31.3522 13.4375C33.9236 12.7411 35.8522 10.8527 35.1557 8.9375C34.5128 7.19644 31.928 6.76786 29.6245 7.54464L21.5754 10.3036C21.0128 10.4911 20.611 10.4777 19.9682 10.1696L8.74499 4.86607C8.38339 4.70536 7.98159 4.66518 7.61999 4.77232L6.69588 5.05357C6.37445 5.16072 6.26731 5.53572 6.56196 5.84375L14.236 13.9866L14.4906 12.7143L7.71374 15.0446L10.3387 15.125L2.49053 12.3393C2.12892 12.2188 1.80749 12.2723 1.45928 12.5937L1.07088 12.9554C0.803025 13.1964 0.789632 13.5179 1.01731 13.7589L5.7182 19.0357C6.33428 19.7321 7.24499 19.8661 8.38339 19.5581Z" fill="black"/>
</svg>
