<svg width="14" height="14" viewBox="0 0 14 14" fill="none" xmlns="http://www.w3.org/2000/svg">
<path d="M2.82812 13.2578C2.71354 13.1745 2.64323 13.0625 2.61719 12.9219C2.59635 12.7812 2.6224 12.6094 2.69531 12.4062L3.98438 8.53906L0.664062 6.14844C0.492188 6.02865 0.372396 5.90365 0.304688 5.77344C0.242188 5.64323 0.231771 5.51042 0.273438 5.375C0.320312 5.23958 0.408854 5.14062 0.539062 5.07812C0.669271 5.01042 0.838542 4.97656 1.04688 4.97656H5.11719L6.35938 1.11719C6.43229 0.914062 6.51823 0.763021 6.61719 0.664062C6.71615 0.559896 6.83594 0.507812 6.97656 0.507812C7.11719 0.507812 7.23958 0.559896 7.34375 0.664062C7.44792 0.763021 7.53125 0.914062 7.59375 1.11719L8.83594 4.97656H12.9062C13.125 4.97656 13.2969 5.01042 13.4219 5.07812C13.5521 5.14062 13.638 5.23958 13.6797 5.375C13.7266 5.51042 13.7161 5.64323 13.6484 5.77344C13.5807 5.90365 13.4609 6.02865 13.2891 6.14844L9.97656 8.53906L11.2656 12.4062C11.3333 12.6094 11.3542 12.7812 11.3281 12.9219C11.3073 13.0625 11.2396 13.1745 11.125 13.2578C11.0156 13.3464 10.888 13.3776 10.7422 13.3516C10.6016 13.3307 10.4453 13.2552 10.2734 13.125L6.97656 10.7109L3.6875 13.125C3.51562 13.2552 3.35677 13.3307 3.21094 13.3516C3.07031 13.3776 2.94271 13.3464 2.82812 13.2578Z" fill="#253168"/>
</svg>
