<svg width="32" height="32" viewBox="0 0 32 32" fill="none" xmlns="http://www.w3.org/2000/svg">
<path d="M26.4303 23.72L25.8503 21.395C25.6049 20.4265 25.0443 19.5672 24.2567 18.9525C23.4691 18.3379 22.4993 18.0027 21.5003 18V9.68003C21.517 8.21734 20.9629 6.80575 19.9555 5.74514C18.9481 4.68453 17.5669 4.05849 16.1053 4.00003C15.3742 3.98607 14.6477 4.11802 13.9682 4.38816C13.2888 4.65831 12.67 5.06122 12.1481 5.57334C11.6262 6.08546 11.2117 6.6965 10.9287 7.37073C10.6458 8.04496 10.5001 8.76883 10.5003 9.50003V18.25C10.5003 20.04 12.7453 21.5 15.5003 21.5C15.6329 21.5 15.76 21.5527 15.8538 21.6465C15.9476 21.7402 16.0003 21.8674 16.0003 22C16.0003 22.1326 15.9476 22.2598 15.8538 22.3536C15.76 22.4473 15.6329 22.5 15.5003 22.5C12.1903 22.5 9.50025 20.595 9.50025 18.25C9.49831 18.2021 9.50684 18.1543 9.52525 18.11C8.71415 18.2924 7.96942 18.6959 7.37368 19.2757C6.77793 19.8556 6.35447 20.5891 6.15025 21.395C5.42525 24.3 5.50025 23.92 5.50025 24C5.50025 25.38 10.2003 28 16.0003 28C21.5653 28 27.1953 25.25 26.4303 23.72ZM19.5003 13.5C19.5003 14.4283 19.1315 15.3185 18.4751 15.9749C17.8187 16.6313 16.9285 17 16.0003 17C15.072 17 14.1818 16.6313 13.5254 15.9749C12.869 15.3185 12.5003 14.4283 12.5003 13.5C12.5003 9.17003 12.4603 9.53003 13.0003 9.13503C13.402 8.85318 13.8586 8.65898 14.3403 8.56503C15.3428 8.47871 16.3499 8.45699 17.3553 8.50003C19.0553 8.65503 19.5103 9.81503 19.2403 9.16503C19.5853 10 19.5003 10.41 19.5003 13.5Z" fill="black"/>
</svg>
